<?xml version="1.0" encoding="UTF-8"?><svg id="Capa_1" xmlns="http://www.w3.org/2000/svg" viewBox="0 0 213.02 70.68"><defs><style>.cls-1{fill:#016fd0;fill-rule:evenodd;}</style></defs><path class="cls-1" d="M11.1,1.09L.38,26H7.36l1.98-4.99h11.49l1.97,4.99h7.13L19.22,1.09H11.1Zm3.96,5.8l3.5,8.72h-7.02l3.51-8.72h0Z"/><polygon class="cls-1" points="30.66 26 30.66 1.08 40.57 1.12 46.34 17.18 51.97 1.08 61.8 1.08 61.8 26 55.57 26 55.57 7.64 48.97 26 43.51 26 36.89 7.64 36.89 26 30.66 26 30.66 26"/><polygon class="cls-1" points="66.06 26 66.06 1.08 86.39 1.08 86.39 6.66 72.36 6.66 72.36 10.92 86.06 10.92 86.06 16.16 72.36 16.16 72.36 20.59 86.39 20.59 86.39 26 66.06 26 66.06 26"/><path class="cls-1" d="M89.99,1.09V26h6.23v-8.85h2.62l7.47,8.85h7.61l-8.19-9.18c3.36-.28,6.83-3.17,6.83-7.65,0-5.24-4.11-8.08-8.71-8.08h-13.86Zm6.23,5.57h7.12c1.71,0,2.95,1.34,2.95,2.62,0,1.65-1.61,2.62-2.86,2.62h-7.21V6.66h0Z"/><polygon class="cls-1" points="121.46 26 115.1 26 115.1 1.08 121.46 1.08 121.46 26 121.46 26"/><path class="cls-1" d="M136.54,26h-1.37c-6.64,0-10.67-5.23-10.67-12.35s3.99-12.56,12.37-12.56h6.88V6.98h-7.14c-3.4,0-5.81,2.66-5.81,6.72,0,4.82,2.75,6.85,6.72,6.85h1.64l-2.62,5.44h0Z"/><path class="cls-1" d="M150.09,1.09l-10.71,24.91h6.98l1.98-4.99h11.49l1.97,4.99h7.13L158.21,1.09h-8.12Zm3.96,5.8l3.5,8.72h-7.02l3.51-8.72h0Z"/><polygon class="cls-1" points="169.65 26 169.65 1.08 177.56 1.08 187.67 16.74 187.67 1.08 193.9 1.08 193.9 26 186.24 26 175.87 9.93 175.87 26 169.65 26 169.65 26"/><polygon class="cls-1" points="45.74 69.59 45.74 44.68 66.06 44.68 66.06 50.25 52.03 50.25 52.03 54.51 65.74 54.51 65.74 59.76 52.03 59.76 52.03 64.18 66.06 64.18 66.06 69.59 45.74 69.59 45.74 69.59"/><polygon class="cls-1" points="145.32 69.59 145.32 44.68 165.65 44.68 165.65 50.25 151.62 50.25 151.62 54.51 165.25 54.51 165.25 59.76 151.62 59.76 151.62 64.18 165.65 64.18 165.65 69.59 145.32 69.59 145.32 69.59"/><polygon class="cls-1" points="66.85 69.59 76.75 57.29 66.62 44.68 74.46 44.68 80.5 52.48 86.55 44.68 94.09 44.68 84.09 57.14 94.01 69.59 86.16 69.59 80.3 61.92 74.59 69.59 66.85 69.59 66.85 69.59"/><path class="cls-1" d="M94.75,44.68v24.91h6.39v-7.87h6.56c5.55,0,9.75-2.94,9.75-8.67,0-4.74-3.3-8.38-8.94-8.38h-13.76Zm6.39,5.63h6.9c1.79,0,3.07,1.1,3.07,2.87,0,1.66-1.27,2.87-3.09,2.87h-6.88v-5.74h0Z"/><path class="cls-1" d="M120.15,44.68v24.91h6.23v-8.85h2.62l7.47,8.85h7.61l-8.19-9.18c3.36-.28,6.83-3.17,6.83-7.65,0-5.24-4.11-8.08-8.71-8.08h-13.86Zm6.23,5.57h7.12c1.71,0,2.95,1.34,2.95,2.62,0,1.66-1.61,2.62-2.86,2.62h-7.21v-5.24h0Z"/><path class="cls-1" d="M168.53,69.59v-5.41h12.46c1.84,0,2.64-1,2.64-2.09s-.8-2.11-2.64-2.11h-5.63c-4.9,0-7.62-2.98-7.62-7.46,0-3.99,2.5-7.85,9.77-7.85h12.13l-2.62,5.61h-10.49c-2.01,0-2.62,1.05-2.62,2.06s.76,2.17,2.29,2.17h5.9c5.46,0,7.83,3.1,7.83,7.15,0,4.36-2.64,7.93-8.12,7.93h-13.27Z"/><path class="cls-1" d="M191.39,69.59v-5.41h11.94c1.84,0,2.64-1,2.64-2.09s-.8-2.11-2.64-2.11h-5.1c-4.9,0-7.62-2.98-7.62-7.46,0-3.99,2.5-7.85,9.77-7.85h11.89l-2.62,5.61h-10.25c-2.01,0-2.62,1.05-2.62,2.06s.76,2.17,2.29,2.17h5.37c5.46,0,7.83,3.1,7.83,7.15,0,4.36-2.64,7.93-8.12,7.93h-12.75Z"/></svg>