<?xml version="1.0" encoding="UTF-8"?><svg id="Capa_1" xmlns="http://www.w3.org/2000/svg" viewBox="0 0 347.83 37.52"><defs><style>.cls-1{fill-rule:evenodd;}.cls-1,.cls-2{fill:#ec1c2d;}</style></defs><g><path class="cls-1" d="M69.89,23.99h21.54s1.57,.03,1.57,1.63v3.42s-.1,1.54-1.57,1.54h-21.54v-6.59Zm0-6.67h21.54c1.47,0,1.57-1.54,1.57-1.54v-3.42c0-1.61-1.57-1.63-1.57-1.63h-21.54v6.59Zm30.59,9.94c0,5.46-4.43,9.89-9.89,9.89h-27.33V4.22h27.33c5.46,0,9.89,4.43,9.89,9.9,0,0,.24,3.36-2.42,6.66,0,0,2.42,2.47,2.42,6.49Z"/><g><path class="cls-2" d="M117.45,4.22h8.79l16.7,32.94h-7.69l-4.95-9.73h-16.91l-4.93,9.73h-7.7L117.45,4.22Zm9.47,16.51l-5.07-9.94-5.07,9.94h10.13Z"/><g><path class="cls-1" d="M203.95,37.16c-9.1,0-16.47-7.37-16.47-16.47s7.38-16.47,16.47-16.47h10.54c9.1,0,16.47,7.37,16.47,16.47s-7.37,16.47-16.47,16.47h-10.54Zm10.18-7.32c5.05,0,9.15-4.1,9.15-9.15s-4.1-9.15-9.15-9.15h-9.81c-5.05,0-9.15,4.1-9.15,9.15s4.1,9.15,9.15,9.15h9.81Z"/><path class="cls-1" d="M264.68,15.88c0,.87-.71,1.57-1.57,1.57h-21.57v-6.6h21.57c.87,0,1.57,.7,1.57,1.57v3.46Zm-23.11,21.29v-13.11h13.43l8.58,13.09h8.51l-8.62-13.15c8.86-1.32,8.81-9.81,8.81-9.81,0-5.46-4.43-9.89-9.89-9.89h-27.44V37.17h6.62Z"/><polygon class="cls-2" points="146.38 37.15 153.01 37.15 153.01 15.78 177.95 37.15 184.57 37.15 184.57 4.22 177.95 4.22 177.95 25.61 153.01 4.22 146.38 4.22 146.38 37.15"/><polygon class="cls-2" points="276.42 10.97 289.33 10.97 289.33 37.16 297.02 37.16 297.02 10.97 309.76 10.97 309.76 4.35 276.42 4.35 276.42 10.97"/><polygon class="cls-2" points="314.12 4.23 347.45 4.23 347.45 10.86 320.74 10.86 320.74 17.38 342.35 17.38 342.35 24.01 320.74 24.01 320.74 30.53 347.45 30.53 347.45 37.16 314.12 37.16 314.12 4.23"/></g></g></g><g><path class="cls-2" d="M25.02,18.24l5.1-14v14c.75,.02,1.51,.05,2.28,.05,14.01,0,25.37-3.74,25.37-8.79S46.41,.35,32.39,.35,7.02,4.44,7.02,9.49c0,4.12,7.6,7.61,17.99,8.75h0Z"/><path class="cls-2" d="M24.64,19.29C11.15,19.51,.38,23.52,.38,28.43c0,4.09,7.48,7.55,17.75,8.72l6.51-17.86h0Z"/><path class="cls-2" d="M30.14,19.28v17.87c11.92-.75,20.98-4.21,20.98-8.72s-9.06-8.4-20.98-9.15h0Z"/></g></svg>