<?xml version="1.0" encoding="UTF-8"?><svg id="Capa_1" xmlns="http://www.w3.org/2000/svg" viewBox="0 0 223.72 67.63"><defs><style>.cls-1{fill:#06467f;fill-rule:evenodd;}</style></defs><path class="cls-1" d="M116.39,8.92c-1.45,0-2.9,0-4.35,0-.14,0-.28,0-.42,0-.42,.05-.72,.37-.7,.79,.01,.21,.09,.43,.19,.61,1.03,1.94,2.07,3.88,3.1,5.82,8.68,16.24,17.35,32.47,26.03,48.71,.31,.58,.61,1.16,.93,1.73,.31,.54,.92,.72,1.45,.46,.28-.14,.44-.38,.58-.65,1.56-2.93,3.13-5.86,4.69-8.79,7.52-14.07,15.03-28.13,22.55-42.19,.93-1.73,1.85-3.47,2.78-5.19,.39-.73-.14-1.32-.74-1.32-3.07,.02-6.15,.01-9.22,0-.47,0-.8,.2-1.03,.61-.1,.18-.19,.36-.28,.54-6.23,11.87-12.47,23.73-18.7,35.6-.08,.15-.15,.31-.26,.44-.45,.59-1.32,.59-1.77-.01-.09-.12-.16-.27-.24-.4-1.01-1.92-2.02-3.84-3.03-5.75-5.3-10.09-10.61-20.17-15.9-30.26-.28-.53-.66-.78-1.26-.77-1.47,.02-2.93,0-4.4,0Z"/><path class="cls-1" d="M217.73,58.71c1.44,0,2.87,0,4.31,0,.14,0,.28,0,.42,0,.55-.06,.87-.56,.69-1.09-.06-.16-.15-.31-.23-.46-3.89-7.29-7.79-14.57-11.68-21.86-6.05-11.33-12.11-22.66-18.16-33.99-.07-.12-.13-.25-.21-.37-.44-.63-1.35-.64-1.8-.02-.09,.13-.16,.27-.23,.41-4.11,7.69-8.21,15.37-12.32,23.06-5.84,10.93-11.68,21.86-17.52,32.79-.07,.12-.14,.25-.19,.37-.23,.55,.09,1.1,.69,1.15,.14,.01,.28,0,.42,0,1.76,0,3.53,0,5.29,0,1.14,0,2.28-.02,3.42,0,.66,.02,1.11-.24,1.36-.84,0-.01,.01-.03,.02-.04,5.07-9.65,10.13-19.29,15.2-28.94,1.24-2.36,2.48-4.72,3.72-7.08,.23-.44,.55-.73,1.05-.74,.52,0,.87,.29,1.09,.75,.16,.34,.35,.66,.52,.99,6.14,11.69,12.29,23.37,18.42,35.06,.31,.58,.71,.85,1.37,.84,1.45-.03,2.9,0,4.35,0Z"/><path class="cls-1" d="M40.98,35.8c.13,.06,.21,.1,.29,.13,3.98,1.55,6.58,4.4,7.94,8.41,.74,2.19,.93,4.44,.79,6.74-.1,1.66-.33,3.29-.82,4.87-1.27,4.13-3.91,7.07-7.79,8.91-1.87,.89-3.85,1.44-5.88,1.79-2.16,.38-4.33,.5-6.52,.5-8.95,0-17.91,0-26.86,0-.19,0-.37,0-.56,0-.59-.04-.97-.41-1.03-1.01-.01-.14-.01-.28-.01-.42,0-18.45,0-36.9,0-55.35,0-.02,0-.03,0-.05-.07-.94,.45-1.42,1.4-1.42,9.51,.02,19.03,0,28.54,.01,3.02,0,5.92,.55,8.64,1.89,3.75,1.85,6.38,4.7,7.6,8.74,.98,3.26,.94,6.53-.21,9.74-.97,2.73-2.68,4.87-5.23,6.3-.09,.05-.17,.12-.3,.21Zm-20.25,22.94c2.62,0,5.24,0,7.86,0,1.34,0,2.68-.08,4-.3,1.33-.22,2.61-.58,3.81-1.21,1.99-1.04,3.28-2.65,3.77-4.85,.43-1.92,.36-3.84-.15-5.74-.53-1.98-1.76-3.42-3.62-4.27-.62-.28-1.27-.51-1.93-.69-1.96-.52-3.96-.65-5.98-.66-5.61-.01-11.23,0-16.84,0-.11,0-.22,0-.33,0-.7,.02-1.13,.43-1.19,1.12-.01,.12,0,.25,0,.37,0,4.93,0,9.85,0,14.78,0,.19,0,.38,.04,.56,.1,.48,.48,.83,.97,.87,.15,.02,.31,0,.47,0,3.04,0,6.08,0,9.12,0Zm-.14-41.41h0c-2.98,0-5.96,.02-8.93-.02-1.06-.01-1.53,.48-1.52,1.51,.03,4.1,.01,8.2,.01,12.3,0,.16,0,.31,.01,.47,.06,.54,.46,.95,1,1.01,.11,.01,.22,0,.33,0,5.55,0,11.1,0,16.65,0,1.61,0,3.2-.2,4.73-.75,1.89-.68,3.35-1.87,4.14-3.75,.85-2,.98-4.08,.51-6.19-.33-1.45-1.19-2.56-2.5-3.29-.39-.22-.81-.41-1.23-.56-1.54-.56-3.15-.73-4.78-.74-2.81-.02-5.61,0-8.42,0Z"/><path class="cls-1" d="M101.26,35.8c.12,.05,.19,.08,.25,.11,4.1,1.59,6.74,4.54,8.07,8.7,.62,1.95,.81,3.97,.73,6-.07,1.81-.31,3.6-.85,5.34-1.25,4.04-3.8,6.95-7.58,8.81-1.93,.95-3.98,1.53-6.09,1.9-2.13,.37-4.27,.5-6.43,.5-9,0-18,0-27,0-.2,0-.41,0-.61-.02-.49-.05-.86-.41-.92-.91-.02-.15-.02-.31-.02-.47,0-18.48,0-36.97,0-55.45,0-.14,0-.28,.01-.42,.06-.56,.46-.94,1.01-.98,.12,0,.25,0,.37,0,9.51,0,19.03,0,28.54,0,2.87,0,5.65,.51,8.27,1.71,3.47,1.6,6.05,4.08,7.53,7.64,.83,2,1.15,4.1,1.11,6.26-.04,1.91-.39,3.75-1.15,5.5-1.04,2.39-2.65,4.28-4.95,5.56-.09,.05-.17,.12-.3,.21Zm-20.24,22.94c2.46,0,4.93,0,7.39,0,1.28,0,2.56-.03,3.82-.2,1.43-.2,2.82-.52,4.13-1.14,2.09-.99,3.51-2.57,4.05-4.85,.5-2.06,.42-4.12-.18-6.14-.53-1.78-1.64-3.11-3.31-3.92-.7-.34-1.44-.61-2.18-.81-1.92-.52-3.9-.65-5.88-.66-5.68-.01-11.35,0-17.03-.02-.78,0-1.49,.37-1.42,1.43,0,.03,0,.06,0,.09,0,4.91,0,9.82,0,14.73,0,.19,0,.38,.03,.56,.09,.51,.48,.86,.99,.91,.15,.01,.31,0,.47,0,3.04,0,6.08,0,9.12,0Zm-.15-41.41h0c-2.98,0-5.96,0-8.93,0-.14,0-.28,0-.42,0-.61,.04-1.04,.46-1.08,1.08,0,.14,0,.28,0,.42,0,4.1,0,8.2,0,12.3,0,.14,0,.28,0,.42,.04,.57,.44,.99,1,1.05,.17,.02,.34,.01,.51,.01,5.1,0,10.2,0,15.3,0,.9,0,1.81-.03,2.71-.09,1.11-.07,2.19-.29,3.23-.68,2.07-.77,3.57-2.13,4.3-4.25,.59-1.71,.7-3.48,.39-5.26-.23-1.35-.89-2.49-2.01-3.32-.55-.41-1.17-.72-1.82-.94-1.55-.54-3.16-.72-4.78-.73-2.81-.02-5.61,0-8.42,0Z"/><path class="cls-1" d="M116.39,8.92c1.47,0,2.93,.01,4.4,0,.6,0,.99,.24,1.26,.77,5.3,10.09,10.6,20.17,15.9,30.26,1.01,1.92,2.02,3.84,3.03,5.75,.07,.14,.14,.28,.24,.4,.45,.6,1.32,.6,1.77,.01,.1-.13,.18-.29,.26-.44,6.23-11.87,12.47-23.73,18.7-35.6,.09-.18,.19-.36,.28-.54,.22-.4,.56-.61,1.03-.61,3.07,0,6.15,.01,9.22,0,.6,0,1.13,.59,.74,1.32-.94,1.73-1.86,3.46-2.78,5.19-7.52,14.06-15.03,28.13-22.55,42.19-1.56,2.93-3.13,5.86-4.69,8.79-.14,.27-.3,.51-.58,.65-.53,.26-1.14,.08-1.45-.46-.32-.57-.62-1.15-.93-1.73-8.68-16.24-17.35-32.47-26.03-48.71-1.04-1.94-2.07-3.88-3.1-5.82-.1-.19-.18-.4-.19-.61-.02-.42,.28-.74,.7-.79,.14-.02,.28,0,.42,0,1.45,0,2.9,0,4.35,0Z"/><path class="cls-1" d="M217.73,58.71c-1.45,0-2.9-.02-4.35,0-.66,.01-1.06-.25-1.37-.84-6.13-11.69-12.28-23.38-18.42-35.06-.17-.33-.36-.66-.52-.99-.22-.46-.56-.75-1.09-.75-.5,0-.82,.3-1.05,.74-1.23,2.36-2.48,4.72-3.72,7.08-5.07,9.65-10.13,19.29-15.2,28.94,0,.01-.02,.03-.02,.04-.25,.61-.7,.86-1.36,.84-1.14-.03-2.28,0-3.42,0-1.76,0-3.53,0-5.29,0-.14,0-.28,0-.42,0-.59-.05-.92-.6-.69-1.15,.05-.13,.13-.25,.19-.37,5.84-10.93,11.68-21.86,17.52-32.79,4.11-7.69,8.21-15.37,12.32-23.06,.07-.14,.14-.28,.23-.41,.45-.62,1.36-.61,1.8,.02,.08,.11,.14,.24,.21,.37,6.05,11.33,12.11,22.66,18.16,33.99,3.89,7.29,7.79,14.57,11.68,21.86,.08,.15,.17,.3,.23,.46,.19,.52-.14,1.03-.69,1.09-.14,.01-.28,0-.42,0-1.44,0-2.87,0-4.31,0Z"/></svg>