<?xml version="1.0" encoding="UTF-8"?><svg id="Capa_1" xmlns="http://www.w3.org/2000/svg" viewBox="0 0 142.4 119.72"><defs><style>.cls-1{fill:#002f5d;}.cls-2{fill:#9d0923;}</style></defs><path class="cls-2" d="M70.68,5.66c-6.49,.24-7.61,4.22-15.01,5.61-6.25,.94-10.75-2.22-16.54-.34-5.3,1.95-6.66,6.98-11.89,10.53-4.98,3.11-11.8,2.87-15.23,6.84-3.75,4.49-2.47,9.88-4.71,16.28-2.57,6.51-7.3,8.78-7.3,15.27s4.76,8.79,7.33,15.33c2.26,6.51,.84,11.6,4.7,16.35,3.99,4.14,9.41,3.29,15.17,6.73,5.32,3.57,6.6,8.56,11.92,10.57,6.23,1.89,9.67-1.32,16.54-.35,7,1.18,8.53,5.38,15.01,5.61h.05c6.53-.24,7.53-4.26,14.96-5.59,6.63-.97,10.62,2.2,16.59,.32,5.37-1.99,6.61-7.02,11.92-10.57,5.57-3.32,10.84-2.38,15.15-6.69,3.85-4.72,2.55-10.22,4.78-16.45,2.4-6.28,7.29-8.66,7.29-15.27s-4.68-8.75-7.35-15.26c-2.21-6.72-.98-12.02-4.76-16.41-4.04-4.13-9.88-3.48-15.11-6.67-5.33-3.61-6.6-8.58-11.92-10.57-5.94-1.83-9.76,1.26-16.54,.34-7.29-1.29-8.52-5.37-15.01-5.61h-.05Zm.04,95.02c-34.69,0-57.87-17.91-57.87-40.81S36.03,19.05,70.72,19.05s57.86,17.91,57.86,40.81-23.19,40.81-57.86,40.81h0Z"/><path class="cls-1" d="M115.6,76.82h-.77c-1.81-.02-2.27-.51-2.8-2-.04-.12-5.2-14.83-8.97-25.57-1.34-3.83-2.68-7.65-4.02-11.48-.14-.42-.47-.64-.93-.64h-4.96c-.45,0-.78,.22-.94,.63l-15.56,37.22c-.32,.76-.58,1.16-1.28,1.52-.54,.27-1.45,.3-1.81,.3-.05,0-.09,0-.12,0h-.46c-.45,0-.75,.32-.76,.78v2.41c0,.46,.3,.76,.76,.76h12.11c.45,0,.76-.31,.76-.76v-2.41c0-.44-.31-.76-.76-.76h-1.35c-1.22-.02-2.15-.12-2.15-1.17h0v-.02c0-.37,.12-.84,.35-1.4,.78-1.92,1.56-3.83,2.34-5.75h14c.65,1.82,1.66,5.07,1.67,5.11,0,.01,.37,1.14,.49,1.6,.05,.21,.08,.4,.08,.57,0,.01,0,.03,0,.05-.02,.64-.44,.96-1.34,.99l-1.48,.03c-.21,0-.41,.07-.55,.21s-.21,.33-.21,.55h0v2.41h0c0,.22,.07,.41,.21,.55,.14,.14,.33,.21,.55,.21h17.9c.45,0,.76-.31,.76-.76v-2.4c0-.46-.31-.77-.76-.77Zm-18.2-11.79h-11.88l6.78-16.86,5.11,16.86Zm-37.62,3.2h-2.48c-.39,0-.67,.24-.75,.65-.69,4.33-2.17,8.28-8.56,8.29-4.14,0-6.45-2.78-7.73-6.64-1.28-3.86-1.52-8.79-1.52-13.02,0-2.9,.47-7.09,1.83-10.55,1.36-3.46,3.59-6.18,7.12-6.18,5.82,0,7.54,3.11,8.47,8.2,.09,.46,.34,.69,.76,.68h2.46c.45,0,.76-.31,.76-.76v-11.02c0-.45-.31-.76-.76-.76h-2.52c-.38,0-.55,.19-.73,.57-.32,.68-.54,1.05-1.31,1.06-.47,0-.82-.17-1.43-.47-.16-.07-.33-.16-.53-.25-1.37-.57-3.37-1.22-6.78-1.22-5.86,0-10.76,2.23-14.19,6.13-3.43,3.9-5.4,9.45-5.4,16.09,0,5.3,1.54,10.81,4.76,15,3.23,4.19,8.15,7.05,14.9,7.05,3.74,0,6.11-.66,7.67-1.09,.79-.22,1.37-.38,1.81-.38,.41,0,.69,.2,.89,.65,.18,.41,.47,.48,.71,.48h2.53c.45,0,.76-.31,.76-.76v-11c0-.45-.31-.76-.76-.76Z"/><path class="cls-1" d="M81.56,53.59c-.11-.15-.3-.16-.45-.16-.02,0-.04,0-.05,0h-5.1c-.47,0-.65,.24-.7,.45-.38,1.54-1.12,3.11-2.2,4.66-.99-1.48-1.98-2.95-2.97-4.43,3.19-1.41,4.76-3.1,4.76-5.15,0-2.89-2.35-4.83-5.81-4.83-3.27,0-6.6,1.73-6.61,5.61,0,1.61,.69,2.81,1.39,3.76-2.69,.88-5.5,3.2-5.5,6.37,0,.03,0,.07,0,.1,.07,3.69,3.22,6.17,7.79,6.17h.01c1.59,0,3.87-.31,5.79-1.76,1.27,1.21,3.17,1.32,3.85,1.32,.14,0,.23,0,.25,0h2.04c.47,0,.63-.25,.72-.47l.62-1.49c.04-.11,.07-.21,.07-.3,0-.08-.02-.15-.06-.21-.12-.16-.32-.17-.45-.17-.02,0-.04,0-.06,0h-.95c-1.73,0-2.69-1.22-2.92-1.55,1.06-1.06,1.36-1.49,1.95-2.33,.1-.14,.2-.29,.32-.45,.52-.72,1.24-1.91,1.25-1.93,.32-.49,.5-.77,.99-.77h.69c.33,0,.56-.16,.71-.48l.61-1.38c.06-.15,.09-.27,.09-.38,0-.08-.02-.15-.06-.21h0Zm-16.24,2.05l4.68,6.43c-.86,.86-1.73,1.6-3.21,1.61-2.31,0-3.73-1.49-3.73-3.93,0-1.57,.94-3.27,2.27-4.11h0Zm2.99-3.55c-.94-1.38-1.38-2.27-1.38-3.62,0-1.1,.64-2.26,2.03-2.26,1.21,0,1.76,1.1,1.76,2.22,0,1.62-.78,2.8-2.41,3.66Z"/></svg>