<?xml version="1.0" encoding="UTF-8"?><svg id="Capa_1" xmlns="http://www.w3.org/2000/svg" viewBox="0 0 375.07 58.75"><defs><style>.cls-1{fill:red;}.cls-2{fill:#004785;}</style></defs><path class="cls-2" d="M25.6,42.18c-1.86,2.27-4.66,3.72-7.81,3.72-5.59,0-10.11-4.57-10.11-10.2s4.53-9.86,10.11-9.86c3.08,0,5.85,1.39,7.7,3.59l4.39-4.49c-3.08-3.59-7.57-5.76-12.63-5.76C7.99,19.19,.48,26.79,.48,36.17s7.51,16.65,16.77,16.65c5.05,0,9.57-2.26,12.65-5.83l-4.3-4.8Z"/><rect class="cls-2" x="32.96" y="21.29" width="6.57" height="31.52"/><path class="cls-2" d="M50.74,14.46l6.66-4.13v10.45h6.66v6.07h-6.66v17.87s1.35,5.23,8.18,0l-1.26,6.24s-2.19,2.02-5.48,1.85-7.08-1.1-8.09-7V26.93h-5.48v-6.15h5.48v-6.32Z"/><rect class="cls-2" x="70.55" y="21.29" width="6.57" height="31.52"/><path class="cls-2" d="M103,19.26c-5.82,.08-8.6,3.96-8.6,3.96V9.9l-6.66,3.88V52.8h6.57v-3.79c3.2,4.21,8.43,3.79,8.43,3.79,5.14,.17,13.15-4.13,13.4-16.9,.25-12.77-7.33-16.73-13.15-16.65Zm-1.05,27.73c-4.42,0-7.8-4.55-7.8-4.55v-12.98c4.55-5.06,7.8-4.05,7.8-4.05,3.75-.08,7.79,3.2,7.71,10.5-.08,7.29-3.29,11.08-7.71,11.08Z"/><path class="cls-1" d="M81.49,15.17C76.08,7.03,66.93,.71,54.96,.71c-8.78,0-16.69,3.6-22.24,9.35,0,0-2.76,2.97-4.11,5.1h7.64c4.94-5.5,10.57-8.53,18.8-8.53s15.66,4.44,19.43,8.53h7.01Z"/><path class="cls-2" d="M132.67,19.77s-5.39-.05-10.87,3.03l2.61,4.55s4.21-2.35,8.43-2.28c4.72,.08,6.41,4.38,6.41,4.38v4.05s-2.02-1.93-7.33-1.89c-5.31,.04-13.23,2.23-13.15,10.57,0,0-.17,10.72,11.72,10.62,0,0,5.39,.34,8.77-3.79v3.79h6.49V29.12s-.67-9.19-13.06-9.36Zm6.57,23.85s-4.05,4.13-8.34,3.79c-4.3-.34-6.07-3.12-6.15-5.56s1.85-4.94,7.25-4.94,7.25,1.91,7.25,1.91v4.8Z"/><path class="cls-2" d="M151.32,52.81h6.63V31.62s-.22-6.66,6.63-6.66,6.74,6.66,6.74,6.66v21.2h6.52V30.22s-.22-11.13-11.13-11.01c0,0-6.74-.45-8.54,3.71v-3.15h-6.86V52.81Z"/><path class="cls-2" d="M195.21,19.77s-5.39-.05-10.87,3.03l2.61,4.55s4.21-2.35,8.43-2.28c4.72,.08,6.41,4.38,6.41,4.38v4.05s-2.02-1.93-7.33-1.89c-5.31,.04-13.23,2.23-13.15,10.57,0,0-.17,10.72,11.72,10.62,0,0,5.39,.34,8.77-3.79v3.79h6.49V29.12s-.67-9.19-13.06-9.36Zm6.57,23.85s-4.05,4.13-8.34,3.79c-4.3-.34-6.07-3.12-6.15-5.56s1.85-4.94,7.25-4.94,7.25,1.91,7.25,1.91v4.8Z"/><path class="cls-2" d="M237.52,23.9c-2.44-5.14-7.1-4.71-8.58-4.69,0,0-6.53-.45-8.27,3.71v-3.15h-6.64V52.81h6.42V31.62s-.22-6.66,6.42-6.66c3.25,0,6.18,2.41,6.52,5.95v21.92h6.16V30.22s.33-5.31,5.87-5.27c6.64,.05,6.53,6.66,6.53,6.66v21.2h6.31V30.22s-.22-11.13-10.77-11.01c0,0-7.69-.87-9.96,4.69"/><path class="cls-2" d="M290.95,38.06v-4.97s-1.1-13.84-13.57-13.74c-12.47,.11-15.09,10.28-15.09,15.59s2.28,17.53,14.33,17.53c0,0,7.7,.14,11.66-4.07l-3.4-4.1s-1.85,2.36-8.26,2.44c-4.89,.06-8.43-5.23-7.75-8.68h22.08Zm-14.08-13.06c7.67-.08,8.01,8.09,8.01,8.09h-16.01s.34-8.01,8.01-8.09Z"/><polygon class="cls-2" points="291.63 20.11 298.12 20.11 304.69 30.9 310.93 20.11 318.01 20.11 308.65 35.91 318.01 51.97 310.93 51.97 304.61 40.25 298.12 51.97 290.95 51.97 300.9 35.91 291.63 20.11"/><path class="cls-1" d="M371.85,31.26c-1.09-.28-3.54-.8-5.85-1.27,.04-.03,.07-.05,.1-.07,1.76-1.64,5.19-8.1,5.19-8.1,.72-1.55-.87-4.15-.87-4.15l-.09-.14c-2.83-4.17-7.16-7.42-11.63-9.41,0,0-2.57-.45-3.89,1.6-.64,.98-1.97,3.27-3.19,5.39-.03-.24-.08-.5-.14-.62-.99-2.19-6.01-7.51-6.01-7.51-1.24-1.18-4.21-.5-4.21-.5l-.16,.04c-4.85,1.35-9.32,4.41-12.64,8,0,0-1.25,2.29,.27,4.2,.73,.92,2.47,2.91,4.08,4.75-.19-.03-.38-.04-.48-.03-2.39,.31-8.94,3.57-8.94,3.57-1.49,.84-1.7,3.89-1.7,3.89v.17c-.12,5.04,1.51,10.2,3.98,14.42,0,0,1.83,1.86,4.09,.96,1.09-.43,3.5-1.51,5.72-2.52-.41,2.72,.15,9.14,.15,9.14,.24,1.69,3,3,3,3l.15,.07c4.64,1.95,10.05,2.31,14.88,1.55,0,0,2.4-1.02,2.39-3.46,0-1.17-.13-3.81-.26-6.24,.17,.16,.35,.33,.46,.39,2.11,1.15,9.33,2.37,9.33,2.37,1.7,.2,3.66-2.14,3.66-2.14l.1-.13c3.06-4,4.77-9.14,5.25-14.01,0,0-.38-2.58-2.75-3.19Zm-33.78-12.49c2.85-2.19,6.41-3.5,10.28-3.5,.86,0,2.35,.19,2.99,.28-1.21,2.11-2.25,3.93-2.25,3.93,0,0-.67,.97-.8,2.19,0-.43-.19-1.28-1.5-2.07-1.85-1.12-3.88,.79-5.9,1.12-2.02,.34-3.41-.04-2.8-1.99l-.04,.03Zm-2.21,10.61c-1.61,1.45-.37,3.94-.64,5.97s-1.03,3.25-2.71,2.1l.02,.05c-1.27-3.36-1.49-7.15-.36-10.86,.23-.77,.79-2.02,1.09-2.67,1.56,1.77,2.9,3.26,2.9,3.26,0,0,.54,.73,1.43,1.26-.45,.05-1.03,.27-1.72,.88Zm12.83,18.98h.05c-3.59-.04-7.2-1.23-10.24-3.62-.46-.36-1.1-.98-1.6-1.48,1.78-.82,3.16-1.46,3.16-1.46,0,0,1.48-.53,2.26-1.77-.21,.42-.35,1.15,.07,2.27,.76,2.03,3.53,1.79,5.33,2.77,1.8,.99,2.65,2.14,.97,3.29Zm5.36-8.84c-.42-.32-.96-.56-1.66-.64,0,0-7.33-1.14-9.68,.66,0,0-.13,.09-.27,.29,.34-.62,.5-1.41,.24-2.38,0,0-1.44-6.44-3.72-8.46,.64,.08,1.35-.04,2.11-.5,0,0,6.46-3.65,7.19-6.52,0,0,0-.03,.02-.09-.04,.87,.22,1.85,1.21,2.67,0,0,4.91,4.4,7.95,4.72-.54,.32-1.03,.84-1.35,1.65,0,0-2.38,5.51-2.03,8.6Zm4.2,6.33c-.66,.5-1.9,1.22-2.5,1.55-.13-2.42-.26-4.49-.26-4.49,0,0,.02-.75-.25-1.61,.38,.15,.91,.24,1.63,.16,2.16-.22,2.62-2.97,4.03-4.46,1.41-1.49,2.74-2.02,3.43-.1v-.05c-.93,3.47-2.99,6.66-6.08,8.99Zm2.52-16.9s-.85-.25-1.85-.14c.32-.31,.63-.82,.82-1.66,.47-2.12-1.99-3.42-2.95-5.23-.97-1.81-1.05-3.24,.99-3.29l-.04-.03c2.99,1.99,5.37,4.95,6.61,8.62,.23,.68,.48,1.83,.62,2.56-2.28-.46-4.19-.84-4.19-.84Z"/></svg>