<?xml version="1.0" encoding="UTF-8"?><svg id="Capa_1" xmlns="http://www.w3.org/2000/svg" viewBox="0 0 218.38 94.52"><defs><style>.cls-1{fill:#0069aa;fill-rule:evenodd;}.cls-2{fill:#ed1b23;}</style></defs><path class="cls-1" d="M15.97,34.14c-.49-17.86,9.69-22.41,16-13.65,2.76,5.24,3.94,10.47,2.79,15.71,3.62,2.35,2.15,5.09-4.4,8.22-6.04,2.15-11.77,1.76-17.03-2.35-2.64-1.86-1.76-4.5,2.64-7.93h0Z"/><path class="cls-1" d="M37.26,21.81c-2.42-10.18-.17-16.93,5.28-19.96,5.71-2.58,11.85,2.58,15.85,11.3,2.79,9.15,1.37,17.17-5.14,20.99-7.55,2.75-12.75-1.77-16-12.33h0Z"/><path class="cls-1" d="M40.93,35.32c8.76,5.58,16.29,5.53,21.14-6.9l11.45,6.02c3.5,3.6,4.92,8.29,1.76,15.41-3.02,7.33-7.21,13.96-12.18,20.11,1.27,11.11,.78,17.12-1.47,18.05-1.78,.64-3.69,1.03-5.72,1.17,1.21-1.08,1.8-2.15,1.76-3.23l-2.05-8.37c-6.66,6.34-13.31,7.82-19.96,7.93,6.09-4.92,11.69-10,16.29-15.41,.66-.56-1.6-3.82-4.26-2.79-4.64,7.06-7.09,5.03-13.09-.59-1.76-1.75-6.62,6.59-9.66,16.73-.85,1.86-.7,3.72,.44,5.58-13.52,7.58-25.56,2.14-24.66-3.08L6.28,50.14c.85-4.69,6.16-5.43,9.25-2.5,4.91,4.36,25.22,1.09,25.39-12.33h0Zm-5.38,22.32c.78-6.41,3.04-9.71,6.8-9.9,4.41,.16,6.59,3.43,6.52,9.81,.09,6.01-2.61,10.09-6.43,10.55-4.81,.09-7.09-3.82-6.9-10.46h0Z"/><g><rect class="cls-2" x="149.05" y="73.89" width="5.02" height="19.02"/><rect class="cls-2" x="148.81" y="66.2" width="5.5" height="4.91"/><polygon class="cls-2" points="69.76 92.91 75.02 92.91 75.02 81.81 85.52 81.81 85.52 77.53 75.02 77.53 75.02 71.6 86.02 71.6 86.02 67.31 69.76 67.31 69.76 92.91"/><path class="cls-2" d="M135.56,73.47c-1.2,0-2.42,.28-3.62,.82-1.13,.52-2.04,1.22-2.73,2.08-1.22-1.93-3.22-2.9-5.94-2.9-2.53,0-4.55,.71-6.05,2.1v-1.68h-4.77v19.02h5v-9.58c0-1.7,.39-3.12,1.16-4.21,.85-1.21,2.05-1.79,3.69-1.79,1.32,0,3.08,.45,3.08,4.35v11.23h5.02v-9.58c0-1.71,.38-3.12,1.14-4.21,.85-1.21,2.05-1.79,3.69-1.79,1.32,0,3.08,.45,3.08,4.35v11.23h5.02v-12.03c0-4.85-2.69-7.41-7.79-7.41Z"/><path class="cls-2" d="M107.23,88.81v-7.37c0-2.65-.72-4.65-2.14-5.96-1.46-1.34-3.74-2.02-6.78-2.02-2.45,0-4.83,.58-7.09,1.74l-.35,.18,.3,4.27,.88-.63c1.57-1.13,3.47-1.7,5.65-1.7,1.69,0,2.9,.33,3.58,.99,.52,.52,.83,1.33,.91,2.43-.91-.03-2.05-.04-3.42-.04-2.5,0-4.71,.44-6.55,1.32-2.44,1.15-3.68,2.88-3.68,5.15,0,2.07,.8,3.66,2.39,4.73,1.4,.95,3.35,1.43,5.8,1.43s4.37-.65,5.9-1.95v1.52h4.87l-.11-.69c-.1-.66-.15-1.81-.15-3.41Zm-5.02-4.41v.98c0,1.21-.41,2.16-1.26,2.89-.91,.79-2.22,1.2-3.89,1.2-.86,0-1.6-.21-2.27-.65-.68-.44-.99-.97-.99-1.65,0-1.88,2.22-2.83,6.59-2.83,.27,0,.66,.01,1.18,.03,.24,.01,.45,.02,.64,.02Z"/><rect class="cls-2" x="160.32" y="65.5" width="5.02" height="27.41"/><rect class="cls-2" x="171.59" y="73.89" width="5.02" height="19.02"/><rect class="cls-2" x="171.35" y="66.2" width="5.5" height="4.91"/><path class="cls-2" d="M199.69,88.81v-7.37c0-2.64-.72-4.65-2.14-5.96-1.46-1.34-3.74-2.02-6.78-2.02-2.45,0-4.83,.58-7.09,1.74l-.35,.18,.3,4.27,.88-.63c1.57-1.13,3.47-1.7,5.65-1.7,1.69,0,2.9,.33,3.58,.99,.52,.52,.83,1.33,.91,2.43-.91-.03-2.05-.04-3.42-.04-2.5,0-4.71,.44-6.55,1.32-2.44,1.15-3.68,2.88-3.68,5.15,0,2.07,.8,3.66,2.39,4.73,1.4,.95,3.35,1.43,5.8,1.43s4.37-.65,5.9-1.95v1.52h4.87l-.11-.69c-.1-.66-.16-1.81-.16-3.41Zm-5.02-4.41v.98c0,1.21-.41,2.16-1.26,2.89-.91,.79-2.22,1.2-3.89,1.2-.86,0-1.6-.21-2.27-.65-.68-.44-.99-.97-.99-1.65,0-1.88,2.22-2.83,6.59-2.83,.27,0,.66,.01,1.19,.03,.24,.01,.45,.02,.63,.02Z"/><path class="cls-2" d="M217.22,73.72c-.99-.16-1.87-.25-2.61-.25-1.2,0-2.36,.33-3.45,.97-.54,.32-1.02,.7-1.44,1.12v-1.66h-4.77v19.02h5.01v-8.71c0-2.08,.47-3.74,1.41-4.94,.91-1.17,2.1-1.73,3.64-1.73,.75,0,1.39,.09,1.92,.28l.8,.28v-4.29l-.5-.08Z"/><path class="cls-2" d="M102.3,58.37l.43-.15-.31-4.33-.81,.41c-1.27,.65-3.02,.97-5.19,.97-2.49,0-4.6-.72-6.26-2.15-1.72-1.49-2.56-3.33-2.56-5.65s.8-4.09,2.43-5.56c1.67-1.48,3.88-2.23,6.57-2.23,1.76,0,3.41,.38,4.89,1.14l.78,.4,.43-4.32-.43-.16c-1.7-.63-3.67-.96-5.85-.96-3.97,0-7.29,1.06-9.86,3.16-2.63,2.16-3.97,5.01-3.97,8.46s1.29,6.47,3.82,8.62c2.5,2.12,5.86,3.19,9.97,3.19,2.41,0,4.4-.27,5.91-.81Z"/><path class="cls-2" d="M193.94,41.54c-2.92,0-5.32,.83-7.15,2.46-1.85,1.65-2.79,3.79-2.79,6.36s.94,4.54,2.79,6.23c1.88,1.72,4.29,2.59,7.15,2.59s5.23-.87,7.09-2.59c1.85-1.69,2.79-3.78,2.79-6.23,0-2.57-.93-4.71-2.78-6.36-1.82-1.63-4.21-2.46-7.11-2.46Zm5.09,8.82c0,1.43-.4,2.61-1.22,3.6-.94,1.13-2.21,1.68-3.87,1.68s-2.96-.55-3.91-1.68c-.83-.99-1.24-2.17-1.24-3.59s.44-2.64,1.35-3.66c.98-1.09,2.22-1.62,3.79-1.62s2.77,.53,3.74,1.62c.91,1.01,1.35,2.21,1.35,3.66Z"/><polygon class="cls-2" points="133.08 36.32 132.67 35.29 128.45 35.29 124.39 40.93 128.21 40.93 133.08 36.32"/><path class="cls-2" d="M152.19,43.22c-1.33-1.11-3.18-1.68-5.53-1.68-2.7,0-4.85,.87-6.38,2.59-1.41,1.56-2.12,3.56-2.12,5.95s.67,4.59,1.99,6.24c1.53,1.9,3.71,2.87,6.48,2.87,2.39,0,4.3-.59,5.71-1.77v1.39h4.42v-24.29h-4.57v8.7Zm-1.2,3.5c.81,.99,1.2,2.2,1.2,3.68,0,1.38-.37,2.54-1.14,3.54-.88,1.15-2.07,1.7-3.64,1.7-1.46,0-2.57-.58-3.4-1.78-.72-1.04-1.07-2.2-1.07-3.55,0-1.48,.34-2.7,1.02-3.63,.78-1.07,1.89-1.59,3.41-1.59s2.72,.53,3.61,1.63Z"/><path class="cls-2" d="M128.28,59.18c1.72,0,3.72-.35,5.96-1.05l.42-.13v-4.51l-.95,.68c-.43,.31-1.15,.62-2.13,.92-2.98,.93-5.26,.67-6.98-.78-.91-.75-1.43-1.64-1.57-2.7h13.01v-.6c0-6.28-2.91-9.47-8.66-9.47-2.71,0-4.94,.8-6.63,2.38-1.7,1.59-2.56,3.66-2.56,6.16,0,2.8,.84,5.02,2.5,6.59,1.73,1.67,4.28,2.51,7.58,2.51Zm-5.16-10.94c.19-.75,.54-1.4,1.03-1.93,.77-.83,1.81-1.23,3.17-1.23,1.25,0,2.21,.36,2.94,1.1,.55,.56,.88,1.24,.98,2.06h-8.12Z"/><rect class="cls-2" x="161.51" y="35.14" width="5" height="4.47"/><rect class="cls-2" x="161.72" y="41.91" width="4.58" height="16.89"/><path class="cls-2" d="M182.47,58.61v-3.95l-.89,.5c-1.07,.59-2.71,.73-3.59-.08-.44-.4-.65-.93-.65-1.63v-8h4.85v-3.53h-4.85v-4.75l-4.57,1.26v3.49h-4.13v3.53h4.13v8.57c0,2.36,1.08,5.17,6.23,5.17,.8,0,1.82-.15,3.02-.45l.45-.11Z"/><path class="cls-2" d="M116.1,45.5l.8,.28v-3.94l-.5-.08c-.89-.15-1.65-.22-2.32-.22-1.07,0-2.11,.29-3.08,.86-.43,.26-.82,.55-1.17,.88v-1.37h-4.36v16.89h4.57v-7.74c0-1.81,.41-3.26,1.23-4.3,.79-1.01,1.83-1.5,3.16-1.5,.65,0,1.22,.08,1.68,.24Z"/></g></svg>