<?xml version="1.0" encoding="UTF-8"?><svg id="Capa_1" xmlns="http://www.w3.org/2000/svg" viewBox="0 0 269.57 88.1"><defs><style>.cls-1{fill:#e3002d;}</style></defs><polygon class="cls-1" points="62.6 64.75 86.88 64.75 96.02 43.05 62.6 16.2 62.6 64.75"/><polygon class="cls-1" points="58.04 .21 .63 16.2 .63 41.91 58.04 17.06 58.04 .21"/><polygon class="cls-1" points="58.04 22.2 .63 46.76 .63 75.61 58.04 40.48 58.04 22.2"/><polygon class="cls-1" points="58.04 45.62 .63 81.03 .63 87.03 36.05 87.03 58.04 65.61 58.04 45.62"/><polygon class="cls-1" points="42.9 87.03 80.31 87.03 80.31 69.32 60.89 69.32 42.9 87.03"/><path class="cls-1" d="M182.83,64.75l3.43-11.99h23.13l3.43,11.99h14.85L205.97,2.78h-16.28l-21.7,61.97h14.85Zm14.99-52.48l8.22,28.77h-16.44l8.22-28.77Z"/><path class="cls-1" d="M227.83,70.2h-2.91l-5.82,16.6h3.98l.92-3.21h6.2l.92,3.21h3.98l-5.82-16.6h-1.45Zm-2.93,10.25l2.2-7.71,2.2,7.71h-4.41Z"/><path class="cls-1" d="M243.52,64.61c12.57,4.28,25.42-2.28,25.42-2.28v-11.71c-4.46,1.22-6.86,2.2-10.57,2.57-2.86,.29-6.57,.25-9.42-.86-8.85-3.43-8.14-12.85-8.14-12.85h-.14v-10.85h0c-.07-1.49-.2-14.3,14.86-14.56,0,0,5.43,0,13.28,2.14V4.5s-12.85-5.14-25.42-.86c-12.52,4.27-16.54,12.64-17.28,24.99l-.14,8.42c.71,12.42,5,23.27,17.56,27.56Z"/><path class="cls-1" d="M126.2,83.33c-2.38-.92-2.19-3.46-2.19-3.46h-.04v-2.92h0c-.02-.4-.05-3.85,4-3.92,0,0,1.46,0,3.57,.58v-3.15s-3.46-1.38-6.84-.23c-3.37,1.15-4.45,3.4-4.65,6.73l-.04,2.27c.19,3.34,1.35,6.27,4.73,7.42,3.38,1.15,6.84-.61,6.84-.61v-3.15c-1.2,.33-1.85,.59-2.84,.69-.77,.08-1.77,.07-2.54-.23Z"/><path class="cls-1" d="M266.1,83.56c-.77,.08-1.77,.07-2.54-.23-2.38-.92-2.19-3.46-2.19-3.46h-.04v-2.92h0c-.02-.4-.05-3.85,4-3.92,0,0,1.46,0,3.57,.58v-3.15s-3.46-1.38-6.84-.23c-3.37,1.15-4.45,3.4-4.65,6.73l-.04,2.27c.19,3.34,1.35,6.27,4.73,7.42,3.38,1.15,6.84-.61,6.84-.61v-3.15c-1.2,.33-1.85,.59-2.84,.69Z"/><path class="cls-1" d="M193.4,70.75v-.29s-1.77-.71-4.02-.69c0,0-.01,0-.02,0,0,0-.01,0-.02,0-2.25-.02-4.02,.69-4.02,.69v.29c-2.41,1.25-3.25,3.33-3.42,6.21l-.04,2.27c.19,3.34,1.35,6.27,4.73,7.42,.94,.32,1.89,.42,2.77,.38,.88,.03,1.83-.06,2.77-.38,3.38-1.15,4.54-4.07,4.73-7.42l-.04-2.27c-.17-2.88-1.01-4.96-3.42-6.21Zm-.49,6.21h0v2.92h-.04s.19,2.54-2.19,3.46c-.4,.15-.85,.23-1.31,.26-.46-.03-.91-.1-1.31-.26-2.38-.92-2.19-3.46-2.19-3.46h-.04v-2.92h0c-.02-.39-.05-3.58,3.54-3.89,3.59,.32,3.56,3.51,3.54,3.89Z"/><path class="cls-1" d="M167.98,43.62c-1.43-9.71-10.57-11.71-10.57-11.71,0,0,2-.86,4.85-3.43,2.86-2.57,5.71-10,1.71-17.71-4-7.71-14.56-8-14.56-8h-28.84v61.97h12.85s18.42,1,24.85-2.28c5.48-2.8,11.14-9.14,9.71-18.85Zm-34.13-29.27h11.33c1.32,0,7.38-.51,7.38,6.65s-5.01,6.91-5.01,6.91h-13.7V14.35Zm14.85,38.84h-14.85v-15.14h12.28c1.43,0,8-.57,8,7.43s-5.43,7.71-5.43,7.71Z"/><rect class="cls-1" x="250.23" y="70.18" width="4" height="16.56"/><polygon class="cls-1" points="239.09 70.18 234.81 70.18 234.81 73.61 239.09 73.61 239.09 86.74 243.09 86.74 243.09 73.61 247.38 73.61 247.38 70.18 243.09 70.18 239.09 70.18"/><polygon class="cls-1" points="213.39 70.18 212.25 70.18 207.97 81.6 203.68 70.18 202.83 70.18 201.4 70.18 199.4 70.18 199.4 86.74 202.83 86.74 202.83 77.48 206.82 86.74 207.97 86.74 209.11 86.74 213.39 76.82 213.39 86.74 216.82 86.74 216.82 70.18 214.53 70.18 213.39 70.18"/><polygon class="cls-1" points="154.85 79.89 161.13 79.89 161.13 76.75 154.85 76.75 154.85 73.61 162.27 73.61 162.27 70.18 154.85 70.18 152.85 70.18 151.14 70.18 151.14 86.74 152.85 86.74 154.85 86.74 162.56 86.74 162.56 83.32 154.85 83.32 154.85 79.89"/><path class="cls-1" d="M147.42,75.32c0-4-3.14-5.14-4.28-5.14h-8v16.56h3.71v-6.28h2.12l3.02,6.28h4.57l-4-7.14s2.86-.29,2.86-4.28Zm-5.28,2.43h-3.28v-4.66h2.74c.4,0,.79,.1,1.11,.33,.43,.31,.86,.91,.86,2.05,0,0,.29,2.28-1.43,2.28Z"/><path class="cls-1" d="M177.34,71.71s-1.77-1.53-3.69-1.53h-7.8v16.56h8.21c1.93,0,3.52-1.78,3.52-1.78,2.37-2.8,1.91-6.63,1.91-6.63,0,0,.29-4.59-2.14-6.62Zm-3.07,11.43c-.2,.19-.43,.34-.69,.43-.22,.08-.45,.12-.69,.12h-3.33v-10.46h2.47c1.68,0,3.15,1.16,3.49,2.8,.13,.62,.21,1.38,.21,2.3,0,2.92-.9,4.26-1.47,4.81Z"/></svg>