<?xml version="1.0" encoding="UTF-8"?><svg id="Capa_1" xmlns="http://www.w3.org/2000/svg" viewBox="0 0 101.74 101.85"><defs><style>.cls-1{fill:#00869a;}</style></defs><path class="cls-1" d="M50.87,.82c-11.63,0-22.33,3.96-30.83,10.61,.55-.02,1.1-.03,1.66-.03,19.03,0,33.96,10.48,39.5,26.25h-9.51c-5.06-11.08-16.01-18.3-29.98-18.3-3.93,0-7.61,.57-10.99,1.62C4.47,29.32,.77,39.69,.77,50.93c0,12.91,4.88,24.68,12.91,33.56,2.54,.55,5.22,.84,8.03,.84,17.1,0,29.5-9.63,32.63-25.29H16.77v-7.95H63.49v4.09c-1.75,20.83-17.44,36.04-39.48,37.03,7.76,4.94,16.98,7.8,26.86,7.8,27.67,0,50.1-22.43,50.1-50.1S78.54,.82,50.87,.82Zm-10.24,48.65c-2.46-6.3-8.44-10.46-16.13-10.46-10.27,0-17.39,7.31-17.39,17.26s7.12,17.26,17.39,17.26c7.69,0,13.67-4.16,16.13-10.46h4.79c-2.65,8.76-10.58,14.62-20.92,14.62-12.85,0-21.93-9.07-21.93-21.42s9.07-21.42,21.93-21.42c10.33,0,18.27,5.86,20.92,14.62h-4.79Z"/></svg>