<?xml version="1.0" encoding="UTF-8"?><svg id="Capa_1" xmlns="http://www.w3.org/2000/svg" viewBox="0 0 268.55 73.43"><defs><style>.cls-1{fill:red;fill-rule:evenodd;}</style></defs><polygon class="cls-1" points="37.09 .81 37.09 36.71 37.09 72.62 1 36.71 37.09 .81 37.09 .81"/><polygon class="cls-1" points="37.09 .81 72.78 .81 108.73 .81 72.78 36.88 36.95 .95 37.09 .81 37.09 .81"/><polygon class="cls-1" points="108.62 72.62 108.62 36.71 108.62 .81 144.72 36.71 108.62 72.62 108.62 72.62"/><polygon class="cls-1" points="108.63 72.62 72.94 72.62 36.99 72.62 72.94 36.55 108.76 72.48 108.63 72.62 108.63 72.62"/><polygon points="156.31 51.55 162.94 51.55 162.94 38.93 175.77 38.93 175.77 51.55 182.4 51.55 182.4 21.48 175.77 21.48 175.77 33.74 162.94 33.74 162.94 21.48 156.31 21.48 156.31 51.55 156.31 51.55"/><path d="M186,42.22c.04,7.25,5.56,10,11.83,10,7.93,0,12.94-3.92,12.94-9.43,0-6.82-6.67-7.99-8.96-8.68-7.25-2.17-8.29-2.57-8.29-4.88,0-2.53,2.5-3.66,4.54-3.66,2.9,0,4.7,1.29,5,4.34h6.63c.09-6.5-4.74-8.97-11.34-8.97-5.78,0-11.71,2.78-11.71,8.93,0,5.64,4.72,7.34,9,8.68,4.71,1.47,8.01,1.49,8.01,4.73,0,2.95-3.2,4.07-5.44,4.07-3.24,0-5.32-1.47-5.5-5.11h-6.69Z"/><path d="M220.68,38.41h5.43c2.84,0,5.15,1.22,5.15,4.3s-2.6,4.21-5.27,4.21h-5.31v-8.51h0Zm-6.5,13.14h12.58c5.77,0,11.54-2.06,11.54-8.47,0-3.75-2.44-6.32-6.81-7.08,4.02-1.26,5.71-3.62,5.71-6.57,0-5.6-4.79-7.96-10.17-7.96h-12.84v30.07h0Zm6.5-25.31h4.82c2.3,0,4.94,.97,4.94,3.83,0,2.53-2.19,3.92-4.45,3.92h-5.32v-7.75h0Z"/><path d="M267.55,30.53c-.29-6.07-5.19-9.68-12.09-9.68-9.31,0-14.57,6.28-14.57,15.79,0,10.19,4.84,15.58,14.57,15.58,6.86,0,11.73-3.71,12.03-9.66h-6.83c-.65,3.16-2.62,4.57-5.49,4.57-5.56,0-7.41-5.39-7.41-10.4,0-5.26,2.15-10.74,7.79-10.74,2.89,0,4.77,2.13,4.97,4.55h7.04Z"/></svg>