<?xml version="1.0" encoding="UTF-8"?><svg id="Capa_1" xmlns="http://www.w3.org/2000/svg" viewBox="0 0 336.79 88.32"><defs><style>.cls-1{fill:#002f6c;fill-rule:evenodd;}</style></defs><path class="cls-1" d="M44.96,25.34c-5.18,0-9.69,1.84-13.37,5.51-3.67,3.68-5.51,8.19-5.51,13.37s1.84,9.69,5.51,13.37c3.68,3.84,8.19,5.68,13.37,5.68s9.69-1.84,13.37-5.68c3.68-3.67,5.51-8.02,5.51-13.37s-1.84-9.69-5.51-13.37c-3.67-3.67-8.19-5.51-13.37-5.51h0Z"/><path class="cls-1" d="M44.96,22V.45c-7.69,0-14.87,2-21.56,5.68V38.88c1.17-4.85,3.84-8.86,7.69-11.86,4.18-3.34,8.69-5.01,13.87-5.01h0Z"/><path class="cls-1" d="M40.28,66.28c-5.01-1.17-9.02-3.84-12.03-7.85-3.34-4.01-4.85-8.52-4.85-13.7H1.18c0,7.69,2,14.87,5.85,21.55H40.28Z"/><path class="cls-1" d="M66.68,49.9c-1.17,4.85-3.68,8.86-7.69,12.03-4.01,3.17-8.69,4.85-13.87,4.85v21.22c7.69,0,14.87-1.84,21.55-5.68V49.9h0Z"/><path class="cls-1" d="M88.73,44.06c0-7.69-2.01-14.87-5.85-21.55H50.47c5.01,1.17,9.02,3.84,12.03,7.68,3.34,4.18,4.85,8.69,4.85,13.87h21.39Z"/><polygon class="cls-1" points="98.76 23.67 98.76 49.07 106.45 49.07 106.45 23.67 98.76 23.67 98.76 23.67"/><polygon class="cls-1" points="146.71 23.67 138.86 23.67 138.86 42.05 138.86 42.05 123.99 23.67 111.96 23.67 111.96 49.07 119.81 49.07 119.81 30.52 119.81 30.52 134.52 49.07 146.71 49.07 146.71 23.67 146.71 23.67"/><path class="cls-1" d="M159.58,33.7v-4.01h13.87c1.5,0,2.34,.67,2.34,2s-.84,2.01-2.34,2.01h-13.87Zm0,5.18h14.03c1.84,0,2.84,.84,2.84,2.17s-1,1.84-2.84,1.84h-14.03v-4.01h0Zm20.22-2.67v-.17c1.34-.33,2.17-.84,2.67-1.5,.83-.84,1.17-2.34,1.17-4.35,0-2.34-.84-4.01-2.34-5.18-1.5-1-3.84-1.34-7.02-1.34h-22.56v25.4h25.06c2.51,0,4.34-.33,5.51-1.17,1.34-1.17,2.17-3.01,2.17-5.52,0-2-.33-3.51-1-4.34-.84-1-2.01-1.67-3.68-1.84h0Z"/><path class="cls-1" d="M221.06,23.67h-7.69v14.7c0,1.51-.5,2.67-1,3.34-.67,.84-2.01,1.17-3.51,1.17h-7.68c-1.67,0-2.67-.33-3.51-1.17-.67-.67-.84-1.84-.84-3.34v-14.7h-7.85v16.37c0,3.17,.83,5.51,2.51,7.02,1.67,1.67,4.35,2.34,7.85,2.34h11.36c3.51,0,6.18-.67,7.85-2.34,1.67-1.5,2.51-3.84,2.51-7.02V23.67h0Z"/><path class="cls-1" d="M233.93,36.04v-6.18h12.36c2.09,0,3.51,.36,3.51,2.67v.84c0,1.84-1,2.67-2.84,2.67h-13.03Zm0,6.52h12.36c1.17,0,2.01,.17,2.51,.67,.5,.5,.67,1.5,.67,2.84v3.01h7.85v-4.34c0-1.84-.33-3.34-1.17-4.18-.67-.67-1.67-1.17-3.01-1.5,1.67-.33,2.84-1.17,3.51-2.17,.5-1,.83-2.34,.83-4.18v-1.5c0-2.51-.5-4.34-1.5-5.51-1.34-1.51-3.34-2.01-6.18-2.01h-23.73v25.4h7.85v-6.52h0Z"/><path class="cls-1" d="M279.21,33.2l-7.85-.33c-.5,0-1-.33-1.17-.67-.17-.17-.33-.67-.33-1.17,0-1.34,1-2,3.01-2h8.69c1.67,0,2.84,.17,3.34,.5,.33,.33,.5,1,.5,2.17h7.85v-.84c0-2.67-.5-4.51-1.67-5.51-1.34-1.5-4.18-2.17-8.19-2.17h-11.03c-4.51,0-7.52,.84-8.86,2.34-1,1.17-1.5,3.17-1.5,5.85,0,1.84,.17,3.01,.5,4.01,.17,1,.84,1.67,1.67,2.34,1.67,1,5.18,1.5,11.03,1.5l9.36,.33c.67,0,1.17,.34,1.34,.67l.33,1.34c0,.83-.33,1.5-1,1.84l-2.34,.33h-9.69l-2.51-.5c-.5-.33-.83-1.17-.83-2.5h-7.85v1.84c0,2.68,.83,4.51,2.34,5.51,1.34,.84,4.01,1.34,7.69,1.34h9.52c5.18,0,8.69-.5,10.19-1.5,1-.5,1.67-1.34,2.01-2.34,.33-1,.5-2.51,.5-4.18,0-2-.17-3.34-.67-4.34-.33-1.17-1.17-2.01-2.17-2.51-1.84-1-5.85-1.34-12.2-1.34h0Z"/><polygon class="cls-1" points="320.31 23.67 310.12 23.67 296.25 49.07 305.11 49.07 307.28 44.56 310.29 39.04 315.3 29.52 320.31 39.04 310.29 39.04 307.28 44.56 323.32 44.56 325.66 49.07 334.35 49.07 320.31 23.67 320.31 23.67"/><path class="cls-1" d="M162.83,69.1v-1.99h7.2v6.29c-1.1,.88-2.24,1.54-3.42,1.99-1.18,.44-2.38,.66-3.62,.66-1.67,0-3.19-.36-4.55-1.07-1.37-.71-2.39-1.75-3.09-3.1-.7-1.35-1.04-2.86-1.04-4.53s.35-3.2,1.04-4.63c.69-1.44,1.69-2.5,2.98-3.2,1.3-.69,2.79-1.04,4.49-1.04,1.23,0,2.34,.2,3.33,.6,.99,.4,1.77,.95,2.33,1.66,.57,.71,.99,1.64,1.29,2.78l-2.03,.56c-.26-.87-.57-1.55-.95-2.04-.38-.49-.92-.89-1.63-1.19-.7-.3-1.48-.45-2.34-.45-1.03,0-1.92,.16-2.67,.47-.75,.31-1.35,.72-1.82,1.23-.46,.51-.82,1.07-1.07,1.68-.43,1.05-.65,2.19-.65,3.42,0,1.52,.26,2.78,.78,3.8,.52,1.02,1.28,1.78,2.28,2.27,1,.49,2.05,.74,3.17,.74,.98,0,1.93-.19,2.85-.57,.93-.37,1.63-.77,2.11-1.2v-3.17h-4.99Z"/><path class="cls-1" d="M173.05,75.77v-12.31h1.88v1.86c.48-.87,.92-1.45,1.33-1.73,.4-.28,.85-.42,1.34-.42,.7,0,1.42,.23,2.14,.67l-.72,1.94c-.51-.3-1.02-.46-1.53-.46-.46,0-.87,.14-1.23,.41-.36,.28-.62,.66-.78,1.14-.23,.74-.35,1.55-.35,2.43v6.45h-2.09Z"/><path class="cls-1" d="M189.05,75.77v-1.81c-.96,1.39-2.26,2.09-3.91,2.09-.72,0-1.4-.14-2.03-.42-.63-.28-1.1-.63-1.4-1.05-.31-.42-.52-.94-.65-1.55-.08-.41-.13-1.06-.13-1.95v-7.62h2.08v6.83c0,1.09,.04,1.82,.13,2.2,.13,.55,.41,.98,.83,1.29,.43,.31,.95,.47,1.58,.47s1.21-.16,1.76-.48c.55-.32,.94-.76,1.16-1.31,.23-.55,.34-1.36,.34-2.41v-6.6h2.08v12.31h-1.86Z"/><path class="cls-1" d="M194.18,80.49v-17.03h1.9v1.6c.45-.63,.95-1.1,1.52-1.41,.56-.31,1.25-.47,2.05-.47,1.05,0,1.98,.27,2.78,.81,.81,.54,1.41,1.31,1.82,2.29,.41,.98,.62,2.07,.62,3.24,0,1.26-.23,2.39-.68,3.4-.45,1.01-1.11,1.78-1.97,2.32-.86,.53-1.77,.8-2.72,.8-.7,0-1.32-.15-1.87-.44-.55-.29-1.01-.66-1.36-1.11v5.99h-2.09Zm1.89-10.8c0,1.58,.32,2.75,.96,3.51,.64,.76,1.42,1.14,2.33,1.14s1.72-.39,2.38-1.18c.66-.78,.99-2,.99-3.64s-.32-2.74-.97-3.53c-.65-.78-1.42-1.17-2.31-1.17s-1.68,.42-2.36,1.25c-.68,.83-1.03,2.04-1.03,3.62h0Z"/><path class="cls-1" d="M206.61,69.61c0-2.28,.63-3.97,1.9-5.07,1.06-.91,2.35-1.37,3.87-1.37,1.69,0,3.08,.55,4.15,1.67,1.08,1.11,1.61,2.64,1.61,4.59,0,1.59-.24,2.83-.71,3.74-.48,.91-1.17,1.61-2.07,2.12-.91,.5-1.9,.75-2.98,.75-1.72,0-3.11-.55-4.18-1.66-1.06-1.1-1.59-2.69-1.59-4.78h0Zm2.14,0c0,1.58,.34,2.76,1.03,3.54,.69,.79,1.56,1.18,2.6,1.18s1.9-.4,2.59-1.18c.68-.79,1.03-1.99,1.03-3.6,0-1.52-.34-2.68-1.04-3.46-.69-.78-1.55-1.18-2.58-1.18s-1.91,.39-2.6,1.17c-.69,.78-1.03,1.96-1.03,3.53h0Z"/><polygon class="cls-1" points="227.57 75.77 227.57 58.77 239.03 58.77 239.03 60.78 229.82 60.78 229.82 66.04 237.79 66.04 237.79 68.05 229.82 68.05 229.82 75.77 227.57 75.77 227.57 75.77"/><path class="cls-1" d="M241.7,61.18v-2.4h2.09v2.4h-2.09Zm0,14.59v-12.31h2.09v12.31h-2.09Z"/><path class="cls-1" d="M246.96,75.77v-12.31h1.88v1.75c.91-1.35,2.21-2.03,3.92-2.03,.74,0,1.42,.13,2.05,.4,.63,.27,1.09,.62,1.4,1.05,.31,.43,.53,.95,.65,1.54,.08,.39,.11,1.06,.11,2.03v7.57h-2.09v-7.49c0-.85-.08-1.48-.24-1.91-.16-.42-.45-.76-.86-1-.42-.25-.9-.38-1.46-.38-.89,0-1.65,.28-2.3,.85-.64,.57-.97,1.63-.97,3.21v6.72h-2.09Z"/><path class="cls-1" d="M268.2,74.25c-.78,.66-1.52,1.12-2.23,1.39-.72,.27-1.48,.4-2.3,.4-1.35,0-2.39-.33-3.12-.99-.72-.66-1.09-1.51-1.09-2.53,0-.61,.13-1.16,.41-1.65,.27-.5,.63-.9,1.08-1.2,.45-.3,.95-.53,1.5-.68,.41-.11,1.02-.21,1.85-.31,1.69-.2,2.93-.44,3.72-.72,0-.28,.01-.47,.01-.54,0-.85-.2-1.45-.59-1.8-.53-.47-1.33-.71-2.37-.71-.98,0-1.71,.17-2.18,.51-.47,.34-.81,.95-1.04,1.83l-2.04-.28c.19-.87,.49-1.58,.91-2.11,.42-.54,1.04-.95,1.84-1.24,.8-.29,1.73-.44,2.79-.44s1.9,.13,2.56,.37c.66,.25,1.14,.56,1.45,.93,.31,.38,.52,.85,.65,1.42,.07,.36,.1,1,.1,1.92v2.78c0,1.94,.04,3.17,.13,3.68,.09,.51,.27,1.01,.53,1.48h-2.18c-.21-.43-.36-.94-.42-1.52h0Zm-.17-4.66c-.76,.31-1.9,.57-3.41,.79-.86,.12-1.47,.26-1.82,.42-.36,.15-.63,.38-.82,.68-.19,.3-.29,.62-.29,.99,0,.56,.21,1.02,.63,1.39,.42,.37,1.04,.55,1.85,.55s1.52-.17,2.14-.53c.62-.35,1.09-.83,1.38-1.44,.23-.47,.34-1.17,.34-2.09v-.77h0Z"/><path class="cls-1" d="M273.37,75.77v-12.31h1.88v1.75c.91-1.35,2.21-2.03,3.92-2.03,.74,0,1.42,.13,2.05,.4,.63,.27,1.09,.62,1.4,1.05,.31,.43,.53,.95,.65,1.54,.08,.39,.11,1.06,.11,2.03v7.57h-2.09v-7.49c0-.85-.08-1.48-.24-1.91-.16-.42-.45-.76-.86-1-.42-.25-.9-.38-1.46-.38-.89,0-1.65,.28-2.3,.85-.64,.57-.97,1.63-.97,3.21v6.72h-2.09Z"/><path class="cls-1" d="M294.61,71.26l2.05,.27c-.22,1.41-.8,2.52-1.72,3.32-.92,.8-2.06,1.2-3.4,1.2-1.68,0-3.04-.55-4.06-1.65-1.02-1.1-1.54-2.68-1.54-4.74,0-1.33,.22-2.49,.66-3.49,.44-1,1.11-1.74,2.01-2.24,.9-.5,1.88-.75,2.94-.75,1.34,0,2.43,.34,3.28,1.02,.85,.68,1.4,1.63,1.64,2.88l-2.03,.31c-.19-.83-.53-1.45-1.02-1.87-.49-.42-1.08-.62-1.78-.62-1.05,0-1.91,.38-2.56,1.13-.66,.75-.99,1.94-.99,3.57s.32,2.86,.95,3.61c.63,.75,1.46,1.12,2.48,1.12,.82,0,1.5-.25,2.05-.76,.55-.5,.9-1.27,1.04-2.32h0Z"/><path class="cls-1" d="M298.45,61.18v-2.4h2.09v2.4h-2.09Zm0,14.59v-12.31h2.09v12.31h-2.09Z"/><path class="cls-1" d="M312.14,71.8l2.16,.27c-.34,1.26-.97,2.24-1.89,2.94-.92,.69-2.1,1.04-3.53,1.04-1.8,0-3.23-.55-4.28-1.66-1.06-1.11-1.58-2.66-1.58-4.67s.53-3.68,1.6-4.82c1.07-1.14,2.45-1.72,4.15-1.72s2.99,.56,4.03,1.68c1.04,1.12,1.57,2.7,1.57,4.73,0,.13,0,.31-.01,.56h-9.18c.08,1.35,.46,2.39,1.15,3.11,.69,.72,1.54,1.08,2.57,1.08,.76,0,1.42-.2,1.96-.61,.54-.4,.97-1.04,1.29-1.92h0Zm-6.85-3.38h6.87c-.09-1.03-.36-1.81-.79-2.33-.66-.8-1.53-1.21-2.58-1.21-.96,0-1.76,.32-2.42,.96s-1.01,1.5-1.08,2.57h0Z"/><path class="cls-1" d="M316.9,75.77v-12.31h1.88v1.86c.48-.87,.92-1.45,1.33-1.73,.4-.28,.85-.42,1.34-.42,.7,0,1.42,.23,2.14,.67l-.72,1.94c-.51-.3-1.02-.46-1.53-.46-.46,0-.87,.14-1.23,.41-.36,.28-.62,.66-.78,1.14-.23,.74-.35,1.55-.35,2.43v6.45h-2.09Z"/><path class="cls-1" d="M324.05,69.61c0-2.28,.63-3.97,1.9-5.07,1.06-.91,2.35-1.37,3.87-1.37,1.69,0,3.08,.55,4.15,1.67,1.08,1.11,1.61,2.64,1.61,4.59,0,1.59-.24,2.83-.71,3.74-.48,.91-1.17,1.61-2.07,2.12-.91,.5-1.9,.75-2.98,.75-1.72,0-3.11-.55-4.18-1.66-1.06-1.1-1.59-2.69-1.59-4.78h0Zm2.14,0c0,1.58,.34,2.76,1.03,3.54,.69,.79,1.56,1.18,2.6,1.18s1.9-.4,2.59-1.18c.68-.79,1.03-1.99,1.03-3.6,0-1.52-.34-2.68-1.04-3.46-.69-.78-1.55-1.18-2.58-1.18s-1.91,.39-2.6,1.17c-.69,.78-1.03,1.96-1.03,3.53h0Z"/></svg>