<?xml version="1.0" encoding="UTF-8"?><svg id="Capa_1" xmlns="http://www.w3.org/2000/svg" viewBox="0 0 214.78 66.03"><defs><style>.cls-1{fill:#a30132;}</style></defs><path class="cls-1" d="M56.65,21.89h0l-17.93-.06h-13.68v43.76h14.71V32.08h10.29c7.01,0,7.07,6.36,7.13,12.31v21.19h14.6v-21.19c0-18.73-5.98-22.51-15.12-22.51Zm50.94-.06h0l-9.32,31.44-.63,1.43s-9.43-32.24-9.55-32.88h-15.63c.4,1.15,16.04,43.19,16.21,43.76h17.07c.18-.57,15.69-42.61,16.16-43.76h-14.32Zm92.03,21.42h0s12.77-20.1,13.62-21.42h-15.75c-.23,.46-7.36,13.86-7.36,13.86,0,0-6.55-13.4-6.78-13.86h-17.25c.87,1.26,13.8,21.42,13.8,21.42l-8.16,12.26c-12.99,.4-17.19,.4-21.16,.4h-1.21c-8.39,0-13.39-2.12-14.25-8.13l-.06-.46h30.99v-2.41c0-7.38-2.18-24.57-22.12-24.57-14.26,0-23.52,8.93-23.52,22.85s10.29,22.91,25.53,22.97l14.43-.23,13.68-.34h8.39c.29-.46,7.7-14.44,7.7-14.44,0,0,6.39,13.98,6.61,14.44h17.53c-.92-1.32-14.66-22.34-14.66-22.34Zm-64.33-4.64h0c.23-2.98,1.62-8.54,8.05-8.54,6.84,0,8.1,5.1,8.21,8.54h-16.27ZM1,65.59H15.55V21.83H1v43.76ZM1,13.58H15.55V.46H1V13.58Z"/></svg>