<?xml version="1.0" encoding="UTF-8"?><svg id="Capa_1" xmlns="http://www.w3.org/2000/svg" viewBox="0 0 321.11 63.94"><defs><style>.cls-1,.cls-2{fill:#db0080;}.cls-1,.cls-3{fill-rule:evenodd;}.cls-3{fill:#eea4c9;}</style></defs><path class="cls-3" d="M57.02,50.7h-4.54V8.81s0-3.04-2.72-3.04H25.31V1.23h26.79s4.86,0,4.86,5.39c.05,5.39,.05,44.09,.05,44.09"/><path class="cls-3" d="M50.77,50.7h-4.64V14.73s.27-2.78-2.4-2.78H25.26V7.47h23.06s2.4,.16,2.4,2.67c.05,1.76,.05,40.56,.05,40.56"/><path class="cls-3" d="M44.47,50.7h-4.32V20.12s.21-2.08-1.71-2.08h-13.13v-4.54h17.4s1.76,.37,1.76,2.46c0,1.97,0,34.75,0,34.75"/><path class="cls-3" d="M38.39,50.7h-4.54V26.15s.27-1.76-1.55-1.76h-6.99v-4.48h10.67c1.71,0,2.4,.53,2.4,2.24v28.55"/><path class="cls-1" d="M.44,1.23H4.98V43.12s0,3.04,2.72,3.04h24.44v4.54H5.35s-4.86,0-4.86-5.39c-.05-5.39-.05-44.09-.05-44.09"/><path class="cls-1" d="M6.69,1.23h4.64V37.2s-.27,2.78,2.4,2.78h18.47v4.48H9.14s-2.4-.16-2.4-2.67c-.05-1.76-.05-40.56-.05-40.56"/><path class="cls-1" d="M12.98,1.23h4.32V31.76s-.21,2.08,1.71,2.08h13.13v4.54H14.69s-1.76-.37-1.76-2.46V1.23h.05Z"/><path class="cls-1" d="M19.07,1.23h4.54V25.78s-.27,1.76,1.55,1.76h6.99v4.48h-10.67c-1.71,0-2.4-.53-2.4-2.24-.05-1.92,0-28.55,0-28.55"/><rect class="cls-2" x="93.68" y=".59" width="5.98" height="5.92"/><rect class="cls-2" x="93.68" y="13.72" width="5.98" height="36.99"/><rect class="cls-2" x="302.69" y=".43" width="5.82" height="50.33"/><polygon class="cls-1" points="132.8 13.66 120.8 43.61 109 13.66 102.22 13.66 116.9 50.7 124.75 50.7 139.42 13.66 133.12 13.66 132.8 13.66"/><path class="cls-1" d="M76.87,44.99c-1.76,0-3.1-1.55-3.1-3.52V.59h-5.66V42.43c0,4.59,3.31,8.33,7.53,8.33h16.23v-5.76h-15Z"/><path class="cls-1" d="M188.63,19.69c-1.81,0-3.15,1.6-3.15,3.58v27.43h-5.76V22.31c0-4.64,3.36-8.43,7.58-8.43h6.99v5.82h-5.66Z"/><path class="cls-1" d="M176.57,32.77v-1.12c0-10.73-8.75-19.43-19.48-19.43s-19.48,8.7-19.48,19.43,8.75,19.43,19.48,19.43c9.07,0,16.81-6.08,18.95-14.84h-5.71c-1.97,5.6-7.26,9.39-13.24,9.39-7.26,0-13.24-5.44-13.98-12.81h33.46v-.05Zm-32.82-5.44c1.97-5.87,7.37-9.66,13.34-9.66s11.37,3.79,13.29,9.66h-26.63Z"/><path class="cls-1" d="M280.06,11.9c-7.1,0-13.29,3.74-16.81,9.39-3.47-5.66-9.71-9.39-16.81-9.39s-13.29,3.74-16.81,9.39c-3.47-5.66-9.71-9.39-16.81-9.39-10.89,0-19.69,8.86-19.69,19.75V63.78h5.98v-17.99c3.58,3.47,8.43,5.6,13.77,5.6,7.1,0,13.34-3.74,16.81-9.39,3.47,5.66,9.71,9.39,16.81,9.39s13.34-3.74,16.81-9.39c3.47,5.66,9.71,9.39,16.81,9.39,10.89,0,19.75-8.86,19.75-19.75-.05-10.89-8.91-19.75-19.8-19.75m-67.14,33.62c-7.63,0-13.82-6.19-13.82-13.88s6.19-13.88,13.82-13.88,13.82,6.19,13.82,13.88-6.24,13.88-13.82,13.88m33.57,0c-7.63,0-13.82-6.19-13.82-13.88s6.19-13.88,13.82-13.88,13.82,6.19,13.82,13.88-6.19,13.88-13.82,13.88m33.57,0c-7.63,0-13.82-6.19-13.82-13.88s6.19-13.88,13.82-13.88,13.82,6.19,13.82,13.88c0,7.63-6.19,13.88-13.82,13.88"/><path class="cls-1" d="M315.82,9.34c-2.67,0-4.8-2.13-4.8-4.75s2.13-4.75,4.8-4.75,4.8,2.13,4.8,4.75c.05,2.67-2.13,4.75-4.8,4.75m0-8.7c-2.19,0-4,1.76-4,3.95s1.76,3.95,4,3.95,4-1.76,4-3.95c.05-2.19-1.76-3.95-4-3.95m-2.08,1.49h2.3c1.28,0,1.71,.8,1.71,1.33,0,.8-.59,1.44-1.49,1.44v.05c.43,.16,.75,.59,1.17,1.28l.64,1.01h-1.01l-.48-.8c-.64-1.17-.91-1.39-1.55-1.39h-.48v2.13h-.85V2.13h.05Zm2.03,2.24c.64,0,1.07-.27,1.07-.75s-.37-.75-.91-.75h-1.33v1.55h1.17v-.05Z"/></svg>