<?xml version="1.0" encoding="UTF-8"?><svg id="Capa_1" xmlns="http://www.w3.org/2000/svg" viewBox="0 0 310.49 89.64"><defs><style>.cls-1{fill-rule:evenodd;}</style></defs><path class="cls-1" d="M78.03,72.85c-5.93,7.81-8.2,9.79-11.2,9.79-2.46,0-3.55-1.4-3.31-4.22-2.91,3.16-4.24,4.04-6.32,4.04-2.97,0-4.23-2.54-3.3-6.29,1.68-6.76,9.14-14.19,14.31-14.19,1.58,0,2.29,.84,2.55,2.91l1.57-2.5c1.14,.14,1.62,.14,2.63,.14,.92,0,1.32,0,2.23-.14l-.9,1.57c-.53,.93-.89,1.66-2.43,4.27-.66,1.03-1.2,2.06-1.75,2.94-1.35,2.09-2.36,3.88-3.08,5.26-.72,1.19-1.24,2-1.57,2.46-.35,.57-.53,1.04-.62,1.38-.14,.54,.31,1.04,1.15,1.04,1.94,0,4.49-2.47,9.81-9.81l1.02,.32-.79,1.04h0Zm-9.87-9.81c-.88,0-1.77,.78-3.53,3.26-1.67,2.33-3.43,5.02-4.79,7.3-1.7,2.64-2.37,4.22-2.72,5.66-.32,1.23,.19,2.05,1.09,1.98,1.59,0,3.81-2.01,6.39-5.88,2.47-3.44,4.39-7.16,4.86-9.19,.47-1.7-.19-3.13-1.29-3.13h0Z"/><path class="cls-1" d="M89.03,72.58l-2.36,2.99c-3.73,5.09-6.34,7.07-9.14,7.07-2.49,0-3.73-1.83-3.07-4.49,.31-1.18,.98-2.58,2.52-5.3l16.27-27.45,.66,.06h1.49c.61,0,1.2,0,2.66-.14l-17.67,29.95c-.32,.48-.91,1.53-1.68,3.11-.69,1.18-.81,1.49-.87,1.93-.18,.72,.05,1.11,.8,1.11,1.04,0,2.38-.93,4.31-2.92,1.2-1.28,2.37-2.75,5.05-6.28l.6-.73,.99,.32c-.28,.4-.55,.63-.58,.77h0Z"/><path class="cls-1" d="M110.72,72.85c-5.98,7.81-8.25,9.79-11.23,9.79-2.47,0-3.55-1.4-3.35-4.22-2.87,3.16-4.23,4.04-6.27,4.04-3.04,0-4.3-2.54-3.31-6.29,1.68-6.76,9.15-14.19,14.32-14.19,1.59,0,2.32,.84,2.52,2.91l1.54-2.5c1.16,.14,1.68,.14,2.66,.14,.9,0,1.34,0,2.27-.14l-.9,1.57c-.55,.93-.96,1.66-2.54,4.27-.62,1.03-1.17,2.06-1.7,2.94-1.35,2.09-2.32,3.88-3.08,5.26-.69,1.19-1.23,2-1.57,2.46-.3,.57-.54,1.04-.59,1.38-.18,.54,.35,1.04,1.11,1.04,2.02,0,4.51-2.47,9.84-9.81l1.02,.32-.75,1.04h0Zm-9.89-9.81c-.92,0-1.79,.78-3.57,3.26-1.63,2.33-3.42,5.02-4.79,7.3-1.63,2.64-2.33,4.22-2.72,5.66-.3,1.23,.18,2.05,1.1,1.98,1.62,0,3.79-2.01,6.37-5.88,2.5-3.44,4.4-7.16,4.88-9.19,.41-1.7-.15-3.13-1.27-3.13h0Z"/><path class="cls-1" d="M126.2,73.2c-2.64,3.68-4.27,5.37-6.57,7.07-2.02,1.44-4.43,2.37-6.36,2.37-3.77,0-5.69-2.87-4.66-6.99,1.64-6.4,9.41-13.57,14.68-13.57,2.63,0,3.88,1.68,3.2,4.22-.87,3.5-4.65,4.18-4.13,1.93,.45-1.97,2.55-.63,2.9-2.06,.44-1.76-.35-3.05-1.81-3.05-.98,0-2.18,.7-3.47,2.26-2.99,3.7-7.42,11.26-8.06,13.88-.34,1.4,.44,2.32,2.02,2.32,2.3,0,5.42-1.81,7.91-4.56,1.19-1.37,2.72-3.28,4.35-5.53l1.05,.32-1.05,1.39h0Z"/><path class="cls-1" d="M136.54,73.87c-4.81,6.44-7.5,8.77-10.38,8.77-2.59,0-4.09-1.98-3.46-4.49,.3-.93,.6-1.46,2.23-4.4l6.64-11.36c1.06,.14,1.54,.14,2.34,.14,.91,0,1.4,0,2.5-.14l-8.43,14.3-.92,1.73c-.44,.82-.8,1.5-.93,1.89-.11,.62,.33,1.18,.93,1.18,1.23,0,2.9-1.22,5.14-3.82,1.37-1.5,2.4-2.86,4.82-6.18l1.02,.32-1.5,2.06h0Zm-.82-13.44c-1.39,0-2.1-.65-1.85-1.7,.34-1.26,1.88-2.32,3.45-2.32,1.31,0,2.03,.73,1.78,1.76-.31,1.27-1.76,2.25-3.38,2.25h0Z"/><path class="cls-1" d="M148.21,76.55c-3.16,4.2-5.87,6.09-8.62,6.09-3.58,0-5.69-2.77-4.78-6.4,1.68-6.67,9.59-14.12,15.11-14.12,2.76,0,4.08,1.88,3.3,4.93-.48,1.85-1.28,3.62-3.51,7.3l-.71,1.18c1.41,0,2.46-.83,4.73-4.04l1.01,.32c-2.73,3.76-3.96,4.74-6.53,4.74h0Zm-2.43-2.68c.54-2.26,2.55-4.08,4.4-4.08,.19,0,.51,0,.76,.08,.63-1.06,.83-1.67,1-2.41,.67-2.58,0-4.27-1.72-4.27-1.58,0-2.72,1.05-5.48,4.84-1.53,1.94-2.81,4.12-4.38,6.84-1.47,2.58-1.9,3.55-2.14,4.51-.39,1.37,.3,2.25,1.69,2.25,2.24,0,4.66-1.86,7.23-5.21-1.22-.39-1.68-1.29-1.37-2.55h0Z"/><path class="cls-1" d="M182.64,73.35c-5.8,7.58-7.69,9.28-10.7,9.28-2.58,0-3.75-1.4-3.32-4.26-2.76,3.2-4.32,4.13-6.28,4.13-3.04,0-4.35-2.59-3.45-6.27,1.73-6.83,9.4-14.36,14.58-14.36,1.7,0,2.43,.98,2.51,3l11.63-19.65c.75,.23,1.15,.23,2.11,.23,1.11,0,1.66,0,2.77-.23l-18.21,30.93-1.23,2.11c-.53,.72-.92,1.49-.97,1.92-.17,.62,.26,1.11,.97,1.11,1.7,0,3.69-1.93,9.01-8.86l.73-.96,1.02,.32-1.18,1.54h0Zm-9.28-10.24c-1.28,.08-2.14,.97-4.86,5.11-1.02,1.64-2.18,3.38-3.42,5.52-1.56,2.73-2.3,4.21-2.82,5.81-.24,.88,.32,1.58,1.1,1.58,1.29,0,3.42-1.88,6.05-5.49,2.54-3.34,4.49-7.15,5.09-9.56,.46-1.85-.01-3.05-1.14-2.98h0Z"/><path class="cls-1" d="M46.72,27.03l-1.75,2.24c-2.82,3.79-4.7,5.19-6.79,5.19-1.82,0-2.73-1.33-2.25-3.24,.26-.93,.7-1.95,1.9-3.92L49.81,6.98l.52,.07h1.1c.44,0,.91,0,1.97-.13l-13.06,22.15c-.25,.36-.71,1.13-1.26,2.28-.52,.84-.58,1.12-.66,1.49-.08,.45,.12,.71,.6,.71,.76,0,1.82-.62,3.17-2.1,.96-.94,1.74-2.02,3.78-4.67l.43-.48,.77,.2c-.19,.29-.44,.45-.44,.54h0Z"/><path class="cls-1" d="M246.61,73.87c-4.83,6.44-7.47,8.77-10.36,8.77-2.6,0-4.1-1.98-3.44-4.49,.21-.93,.53-1.46,2.21-4.4l6.6-11.36c1.05,.14,1.56,.14,2.36,.14,.9,0,1.39,0,2.49-.14l-8.44,14.3-.9,1.73c-.4,.82-.76,1.5-.89,1.89-.15,.62,.26,1.18,.92,1.18,1.15,0,2.9-1.22,5.1-3.82,1.39-1.5,2.46-2.86,4.85-6.18l1.02,.32-1.51,2.06h0Zm-.82-13.44c-1.33,0-2.08-.65-1.81-1.7,.3-1.26,1.92-2.32,3.43-2.32,1.26,0,2.02,.73,1.79,1.76-.35,1.27-1.79,2.25-3.41,2.25h0Z"/><path class="cls-1" d="M277.97,73.04c-3.12,4.17-3.77,4.91-5.23,6.41-1.83,1.97-4.15,3.19-5.96,3.19-2.4,0-3.9-1.89-3.33-4.14,.25-.98,.85-2.26,1.61-3.37,.7-.96,1.62-2.42,2.9-4.3,2.19-3.02,3.09-4.74,3.34-5.84,.22-.75,.08-1.18-.62-1.87l-.78,1.04-2.23,3.31-2.47,3.2-.79,1.15-1.06-.32,.8-1.1c1.2-1.7,2.12-2.93,2.6-3.52l2.36-3.34,.86-1.22c-.96-.84-1.34-1.7-1.09-2.73,.4-1.54,2.05-2.97,3.53-2.97,1.06,0,1.53,.53,1.3,1.5-.25,.93-.7,1.8-2.14,3.86,2.95,2.02,3.59,2.81,3.08,4.87-.35,1.19-.97,2.51-2.86,5.47-1.38,2.16-2.23,3.61-2.71,4.38l-1.5,2.35c-.34,.57-.6,1.16-.66,1.54-.17,.55,.23,.99,.74,.99,.89,0,2.25-.83,3.55-1.97,1.58-1.5,2.99-3.19,5.86-7.16l.75-.96,1.04,.32-.89,1.23h0Z"/><path class="cls-1" d="M292.41,73.04c-3.13,4.17-3.66,4.91-5.14,6.41-1.94,1.97-4.21,3.19-6.02,3.19-2.38,0-3.92-1.89-3.34-4.14,.25-.98,.88-2.26,1.62-3.37,.68-.96,1.64-2.42,2.9-4.3,2.15-3.02,3.06-4.74,3.38-5.84,.16-.75,.04-1.18-.61-1.87l-.79,1.04-2.2,3.31-2.55,3.2-.77,1.15-.97-.32,.73-1.1c1.25-1.7,2.15-2.93,2.56-3.52l2.35-3.34,.93-1.22c-1-.84-1.36-1.7-1.1-2.73,.36-1.54,1.99-2.97,3.53-2.97,1.08,0,1.54,.53,1.32,1.5-.25,.93-.78,1.8-2.18,3.86,2.96,2.02,3.56,2.81,3.07,4.87-.28,1.19-.96,2.51-2.87,5.47-1.32,2.16-2.19,3.61-2.7,4.38l-1.47,2.35c-.39,.57-.59,1.16-.74,1.54-.09,.55,.29,.99,.79,.99,.93,0,2.33-.83,3.58-1.97,1.58-1.5,2.98-3.19,5.89-7.16l.7-.96,1.05,.32-.93,1.23h0Z"/><path class="cls-1" d="M303.42,76.55c-3.13,4.2-5.8,6.09-8.56,6.09-3.67,0-5.71-2.77-4.85-6.4,1.72-6.67,9.66-14.12,15.15-14.12,2.76,0,4.12,1.88,3.29,4.93-.43,1.85-1.24,3.62-3.48,7.3l-.7,1.18c1.39,0,2.4-.83,4.71-4.04l1.02,.32c-2.8,3.76-3.97,4.74-6.59,4.74h0Zm-2.39-2.68c.57-2.26,2.51-4.08,4.4-4.08,.14,0,.45,0,.79,.08,.55-1.06,.81-1.67,1-2.41,.62-2.58-.1-4.27-1.75-4.27s-2.78,1.05-5.46,4.84c-1.53,1.94-2.84,4.12-4.44,6.84-1.45,2.58-1.89,3.55-2.11,4.51-.35,1.37,.34,2.25,1.72,2.25,2.2,0,4.65-1.86,7.16-5.21-1.14-.39-1.62-1.29-1.31-2.55h0Z"/><path class="cls-1" d="M81.33,27.32c-2.52-5.54-9.96-.56-9.96-.56-19.29-9.4-34.04,17.78-34.04,17.78-7.4-6.31-20.62-.14-20.62-.14C-3.95,56.07,.99,74.59,.99,74.59c3.95,22.62,32.41,12.08,32.41,12.08,19.48-6.42,25.59-32.98,25.59-32.98,2.13-9.3,12.39-24.82,12.39-24.82,7.28,4.11,6.1,12.46,6.1,12.46,.99,12.27-15.98,13.34-15.98,13.34,19.4,1.8,19.08-12.88,19.08-12.88,.69-8.52-7.38-14.26-7.38-14.26,4.35-4.32,8.14-.21,8.14-.21h0Zm-29.91,27.03s-9.87,29.08-26.78,32.47c0,0-22.71,4.83-21.69-17.79,0,0,1-22.61,24.08-26.28,0,0,5.79-.52,9.72,3.24-.76,2.25-2.33,7.32-.96,9.62,0,0,.43-6.6,1.62-8.95,2.9,3.42,4.33,9.76,.52,21.4,0,0-3.21,7.38-12.3,12.4,0,0,21.76-7.51,14.96-31.4,0,0-.66-2.27-2.59-3.81,0,0,16.21-26.67,31.74-16.6,0,0-12.88,12.41-18.32,25.69h0Z"/><path class="cls-1" d="M15.75,1.7c4.88-2.1,11.81,2.44,11.81,2.44,2.85-2.88,6.99-3.49,6.99-3.49,9.73-1.1,7.63,4.8,7.63,4.8-1.71,3.74-5.87,3.78-5.87,3.78-4.43,.72-8.4-2.53-8.4-2.53-1.5,2.6,.58,3.46,.58,3.46,4.46,0,3.53,2.29,3.53,2.29-1.79,2.01-3.53-.5-3.53-.5-.48-.46-1.93-.07-1.93-.07-10.52,1.82-13.88,10.98-13.88,10.98-4.39,11.54,6.91,11.47,6.91,11.47,6.81,.57,9.48-2.89,9.48-2.89,8.44-8.09,3.46-12.3,3.46-12.3-7.3-6.98-16.48,6.81-16.48,6.81,8.75-16.37,18.5-7.58,18.5-7.58,8.31,9.36-7.2,16.02-7.2,16.02-19.42,7.19-19.01-9.49-19.01-9.49,.53-12.86,18.32-14.55,18.32-14.55-.9-.97,0-5.21,0-5.21-4.57-3.25-8.82-3.25-8.82-3.25-6.54,.29-2.64,5.28-2.64,5.28-3.59-4.22,.54-5.49,.54-5.49h0Zm21.77,5.58c6.23-1.16,3.08-4.46,3.08-4.46-5.98-4.4-11.42,2.27-11.42,2.27,1.62,3.47,8.34,2.19,8.34,2.19h0Z"/><path class="cls-1" d="M256.76,29.07s-14.61,8.91-27.37,29.81l-6.18,.08s2.03-11.96,19.4-29.34l-5.05,2.2s-13.85,1.27-19.77-.66c0,0-9.12-1.81-12.74,5.51,0,0-5.23,10.97,5.73,11.47,0,0,6.54,1.34,12.17-6.89,0,0-5.37,5.75-10.28,5.89,0,0-9.17,1.56-8.03-7.18,0,0,2.32-7.96,8.92-7.6,0,0,4.88,.11,5.83,.78,0,0,6.72,2.84,15.25,.59,0,0-14.88,13.9-20.12,26.01h-5.66v1.37h4.42s-6.32,16.7-18.59,24.69c0,0-4.79,3.96-16.69-1.38,0,0,6.42,6.28,16.56,3.49,0,0,15.55-2.02,27.54-27.23h5.93s-6.24,9.18-6.24,16.36c0,0-1.05,15.54,14.63,7.69,0,0-18.05,8.67-1.06-24.14h3.33v-1.42h-2.06s2.9-11.36,20.15-30.12h0Z"/><path class="cls-1" d="M195.47,77.3c-3.07,3.31-6.61,5.15-9.93,5.15-3.81,0-5.91-2.59-5.04-6.22,1.63-6.43,9.78-14.24,14.96-14.24,2.71,0,4.09,1.96,3.39,4.78-1.24,4.87-8.51,4.91-11.52,5.19-.41,.87-2.74,5.87-2.93,6.61-.5,1.92,.08,2.94,1.79,2.94,3.56,0,7.47-3.02,12.29-9.3l.57-.86,1.05,.29c-1.93,2.7-2.98,3.93-4.62,5.66h0Zm1.44-10.61c2.75-4.12-1.85-3.36-1.85-3.36-4.51,1.35-6.61,7.16-6.61,7.16,6.31,.62,8.46-3.8,8.46-3.8h0Z"/><path class="cls-1" d="M259.88,77.3c-3.17,3.31-6.72,5.15-10,5.15-3.8,0-5.94-2.59-5.01-6.22,1.59-6.43,9.72-14.24,14.89-14.24,2.71,0,4.12,1.96,3.41,4.78-1.24,4.87-8.44,4.91-11.49,5.19-.44,.87-2.73,5.87-2.95,6.61-.41,1.92,.08,2.94,1.77,2.94,3.62,0,7.51-3.02,12.33-9.3l.62-.86,1.01,.29c-1.99,2.7-3,3.93-4.58,5.66h0Zm1.37-10.61c2.74-4.12-1.85-3.36-1.85-3.36-4.48,1.35-6.6,7.16-6.6,7.16,6.32,.62,8.46-3.8,8.46-3.8h0Z"/></svg>