<?xml version="1.0" encoding="UTF-8"?><svg id="Capa_1" xmlns="http://www.w3.org/2000/svg" viewBox="0 0 163.61 91.8"><defs><style>.cls-1{fill:#f7931e;}</style></defs><g><path class="cls-1" d="M57.4,1.52H8.07C4.1,1.52,.93,4.69,.93,8.66V56.95c0,3.97,3.17,7.14,7.14,7.14h8.97v25.33l25.64-25.33h14.71c3.91,0,7.14-3.17,7.14-7.14V8.66c0-3.97-3.17-7.14-7.14-7.14Z"/><path class="cls-1" d="M16.37,90.95v-26.25H8.07c-4.27,0-7.81-3.48-7.81-7.81V8.66C.26,4.39,3.74,.85,8.07,.85H57.4c4.27,0,7.81,3.48,7.81,7.81V56.95c0,4.27-3.48,7.81-7.81,7.81h-14.47l-26.56,26.19ZM8.07,2.13c-3.54,0-6.47,2.93-6.47,6.47V56.89c0,3.54,2.93,6.47,6.47,6.47h9.65v24.42l24.66-24.42h15.02c3.54,0,6.47-2.93,6.47-6.47V8.66c0-3.54-2.93-6.47-6.47-6.47H8.07v-.06Z"/></g><g><path d="M84.17,17.21c3.11-4.58,9.34-4.88,9.4-4.88l-.06-1.28,.06,1.28-.06-2.63c-.24,0-5.37,.18-9.28,3.6v-3.6h-2.63v23.56h2.63V17.21h-.06Z"/><path d="M103.46,33.2v-2.63c-4.82,0-8.85-3.72-9.46-8.49h21.67v-1.28c0-6.84-5.49-12.45-12.21-12.45s-12.21,5.56-12.21,12.45,5.43,12.39,12.21,12.39Zm0-22.22c4.82,0,8.85,3.72,9.46,8.49h-18.99c.61-4.76,4.64-8.49,9.52-8.49Z"/><path d="M100.65,33.93v23.56h2.63v-16.06c3.11-4.58,9.34-4.88,9.4-4.88l-.06-2.63c-.24,0-5.37,.18-9.28,3.6v-3.6h-2.69Z"/><path d="M110.36,45.04c0,6.84,5.49,12.45,12.21,12.45v-2.63c-4.82,0-8.85-3.72-9.46-8.49h21.67v-1.28c0-6.84-5.49-12.45-12.21-12.45-6.72-.06-12.21,5.56-12.21,12.39Zm12.21-9.83c4.82,0,8.85,3.72,9.46,8.49h-18.99c.67-4.76,4.64-8.49,9.52-8.49Z"/><path d="M127.58,71.91h21.67v-1.28c0-6.84-5.49-12.45-12.21-12.45s-12.21,5.56-12.21,12.45,5.49,12.45,12.21,12.45v-2.63c-4.82,0-8.85-3.72-9.46-8.55Zm9.46-11.11c4.82,0,8.85,3.72,9.46,8.49h-18.99c.67-4.76,4.7-8.49,9.52-8.49Z"/><polygon points="163.35 60.25 161.21 58.72 154.68 67.88 148.33 58.35 146.19 59.82 153.03 70.13 145.71 80.39 147.84 81.92 154.56 72.52 160.78 81.86 162.98 80.45 156.21 70.2 163.35 60.25"/><path d="M112.68,58.6c-4.15,0-7.75,2.32-9.58,5.74-1.83-3.42-5.43-5.74-9.58-5.74-3.3,0-6.29,1.47-8.3,3.85v-4.03h-2.63v24.24h2.63v-13.13c0-4.58,3.72-8.3,8.3-8.3s8.3,3.72,8.3,8.3v13.13h2.63v-13.13c0-4.58,3.72-8.3,8.3-8.3s8.3,3.72,8.3,8.3v12.7h2.63v-12.7c-.06-6.04-5.01-10.93-10.99-10.93Z"/><path d="M93.14,57.62c1.77,0,3.48-.37,5.07-1.1l-1.1-2.38c-1.28,.55-2.63,.85-4.03,.85-5.43,0-9.83-4.4-9.83-9.83s4.4-9.83,9.83-9.83c1.95,0,3.85,.61,5.49,1.71l1.47-2.2c-2.08-1.4-4.46-2.14-6.96-2.14-6.9,0-12.45,5.62-12.45,12.45,.06,6.84,5.68,12.45,12.51,12.45Z"/></g></svg>