<?xml version="1.0" encoding="UTF-8"?><svg id="Capa_1" xmlns="http://www.w3.org/2000/svg" viewBox="0 0 333.23 58.91"><defs><style>.cls-1{fill:red;}</style></defs><path class="cls-1" d="M332.62,26.77c0,1.95,0,3.91-.49,5.37-1.47-.49-2.93-.49-4.88-.49-1.47,0-2.93,.49-4.4,.49v24.41h-6.34V28.23c2.44-.98,7.32-1.95,10.74-1.95,1.94,0,3.91,0,5.37,.49Zm-42.48,12.2h14.65c0-4.39-2.93-7.32-7.33-7.32s-6.82,2.44-7.32,7.32Zm20.5,5.37h-20c.48,5.37,3.41,7.81,9.28,7.81,3.41,0,6.82-.98,10.25-2.44-.49,1.95-.97,3.91-.97,5.86-2.93,1.46-6.36,1.95-9.28,1.95-10.74,0-16.12-5.86-16.12-15.62,0-8.79,4.38-15.62,14.15-15.62s13.18,5.86,13.18,13.18c0,1.95-.49,3.42-.49,4.88Zm-38.08,5.86v-18.06c-1.47,0-3.41-.49-4.88-.49-6.34,0-9.28,3.9-9.28,10.74,0,5.86,2.44,9.76,7.81,9.76,2.44,0,4.4-.98,6.34-1.95Zm6.34-33.69V56.55h-5.85l-.49-3.42c-1.47,2.44-3.91,4.39-8.29,4.39-7.33,0-12.21-5.86-12.21-15.13,0-10.25,5.37-16.11,15.62-16.11,1.96,0,3.41,.49,4.88,.49v-9.28c1.96-.98,4.4-.98,6.34-.98Zm-32.21,20.99v19.04h-6.34v-18.06c0-4.39-1.47-6.83-7.81-6.83-1.47,0-2.93,.49-4.89,.49v24.41h-6.34V28.23c3.91-.98,8.3-1.95,11.72-1.95,10.27,0,13.68,4.39,13.68,11.23Zm-38.57,12.69v-18.06c-1.47,0-2.93-.49-4.38-.49-6.84,0-9.77,4.39-9.77,10.74,0,5.86,2.44,9.76,7.81,9.76,2.44,0,4.88-.49,6.34-1.95Zm6.34-21.97v28.32h-5.85l-.49-3.42c-1.47,2.44-3.91,4.39-7.81,4.39-7.81,0-12.69-5.86-12.69-15.13,0-10.25,5.37-16.11,16.12-16.11,3.91,0,7.32,.49,10.73,1.95Zm-34.17,23.92c1.96,0,3.91-.49,5.37-.98-.48,1.46-.48,3.42-.97,5.37-1.47,.49-3.41,.98-5.37,.98-5.87,0-9.77-2.93-9.77-9.76V17.49c1.96-.49,3.91-.98,5.87-.98v10.74h10.25c0,1.95-.48,3.91-.48,5.37h-9.77v14.16c0,3.91,1.96,5.37,4.88,5.37Zm-17.08-14.65v19.04h-6.35v-18.06c0-4.39-1.46-6.83-7.81-6.83-1.46,0-3.42,.49-5.37,.49v24.41h-6.35V28.23c4.39-.98,8.79-1.95,11.72-1.95,10.74,0,14.16,4.39,14.16,11.23Zm-39.06,12.69v-18.06c-.98,0-2.44-.49-4.39-.49-6.35,0-9.76,4.39-9.76,10.74,0,5.86,2.44,9.76,8.3,9.76,2.44,0,4.39-.49,5.86-1.95Zm6.35-21.97v28.32h-5.86v-3.42c-1.95,2.44-4.39,4.39-8.3,4.39-7.32,0-12.69-5.86-12.69-15.13,0-10.25,5.37-16.11,16.11-16.11,4.39,0,7.81,.49,10.74,1.95Zm-57.12,27.34c0-2.44,.49-3.91,.98-5.86,3.42,1.46,7.32,1.95,10.74,1.95,5.37,0,8.3-1.46,8.3-4.88s-2.44-4.88-7.81-7.32l-2.93-.98c-5.37-2.44-8.79-5.37-8.79-11.72s4.39-10.74,13.67-10.74c3.91,0,7.32,.49,10.25,1.46,0,2.44-.49,4.39-.98,5.86-2.93-.98-6.83-1.46-9.28-1.46-4.88,0-7.32,1.95-7.32,4.88s1.95,4.88,6.35,6.35l2.93,1.46c7.32,2.93,10.25,6.35,10.25,11.72,0,6.83-4.88,11.23-14.65,11.23-4.88,0-8.79-.49-11.72-1.95Zm-28.81-28.32c-.49-2.44-.98-4.39-1.95-6.35L32.84,4.31c-.49-.98-.98-2.44-1.46-3.91v.98c-2.44,3.91-2.44,8.79,0,13.18l7.32,13.18c2.44,3.91,2.44,9.28,0,13.18l-.49,.98c0-1.46-.49-2.93-1.46-4.39l-6.83-12.2-4.39-7.32c-.98-1.46-1.46-2.93-1.46-4.39l-.49,.98c-2.44,3.91-2.44,8.79,0,13.18h0l7.81,13.18c1.95,4.39,1.95,9.28,0,13.18l-.49,.98c-.49-1.46-.98-2.93-1.46-3.91l-9.76-16.6c-1.46-2.44-1.95-4.88-1.95-7.32C7.45,29.7,.62,35.56,.62,41.9c0,9.28,13.67,16.6,30.76,16.6s30.27-7.32,30.27-16.6c0-6.35-6.83-12.21-17.09-14.65Z"/></svg>