<?xml version="1.0" encoding="UTF-8"?><svg id="Capa_1" xmlns="http://www.w3.org/2000/svg" viewBox="0 0 379.64 68.8"><defs><style>.cls-1{fill:#ec1c2d;fill-rule:evenodd;}</style></defs><path class="cls-1" d="M156.51,46.23c3.79,0,6.01-3.32,6.01-7.27s-2.12-7.32-6.01-7.32-6.01,3.32-6.01,7.32,2.23,7.27,6.01,7.27h0Zm0,6.7c-9.07,0-15.56-5.45-15.56-13.97s6.73-14.02,15.56-14.02,15.57,5.57,15.57,14.02-6.55,13.97-15.57,13.97h0Z"/><path class="cls-1" d="M268.16,38.97c0-3.58-2.04-6.76-5.6-6.76-3.13,0-5.65,2.68-5.65,6.76s2.06,6.78,5.65,6.78c3.23,0,5.6-2.69,5.6-6.78h0Zm-20.4,13.39V14.6h9.3v12.94h.1c.65-.41,3.66-2.57,8.08-2.57,7.24,0,12.56,5.82,12.56,13.52,0,9.62-5.9,14.47-12.62,14.47-5.08,0-7.66-2.37-8.3-3.05h-.15l-.14,2.45h-8.85Z"/><path class="cls-1" d="M202.46,12.06c-2.87,0-5.23,2.36-5.23,5.23s2.36,5.23,5.23,5.23,5.23-2.36,5.23-5.23-2.36-5.23-5.23-5.23h0Zm-4.67,13.56h9.34v26.8h-9.34V25.62h0Z"/><path class="cls-1" d="M317.62,52.38h9.06v-13.83c0-3.24,2.15-5.46,4.9-5.46,3.14,0,4.92,2.04,4.92,5.46v13.83h9.06v-16.12c0-6.07-3.91-11.26-11.08-11.26-4.79,0-7.28,2.6-8.42,3.63h-.19l-.09-2.97h-8.16v26.73h0Zm0,0h0Z"/><polygon class="cls-1" points="351.28 52.38 360.57 52.38 360.57 39.98 360.67 39.98 368.92 52.38 379.26 52.38 369.3 38.19 379.01 25.64 368.68 25.64 360.67 36.68 360.57 36.68 360.57 14.63 351.28 14.63 351.28 52.38 351.28 52.38"/><path class="cls-1" d="M138.58,26.01c-.7-.19-3.26-1.07-6.65-1.07-8.39,0-14.68,5.25-14.68,14,0,7.95,5.65,14,14.31,14,3.69,0,6.4-.98,7.02-1.17l-.45-7.81c-.72,.33-2.57,1.39-4.72,1.39-3.76,0-6.5-2.66-6.5-6.41,0-3.93,2.94-6.47,6.61-6.47,2.07,0,3.92,.96,4.61,1.31l.45-7.77h0Z"/><path class="cls-1" d="M221.16,38.72c0,4.43,2.47,7.2,5.67,7.2,2.9,0,5.73-2.72,5.73-6.83s-2.5-6.99-5.73-6.99c-3.33,0-5.67,2.98-5.67,6.63h0Zm20.58-13.12v26.78h-9.05l-.14-2.7h-.2c-1,.91-3.09,3.29-8.93,3.29-6.47,0-12.14-5.62-12.14-14,0-7.77,5.03-13.99,12.74-13.99,5.24,0,7.38,2.31,8.19,3.04h.24l.09-2.42h9.19Z"/><path class="cls-1" d="M291,38.7c0,4.43,2.47,7.2,5.67,7.2,2.9,0,5.73-2.72,5.73-6.83s-2.51-6.99-5.73-6.99c-3.33,0-5.67,2.97-5.67,6.62h0Zm20.58-13.12v26.78h-9.05l-.14-2.7h-.19c-1,.9-3.1,3.3-8.93,3.3-6.47,0-12.14-5.63-12.14-14.01,0-7.78,5.03-13.99,12.74-13.99,5.24,0,7.38,2.31,8.19,3.05h.24l.09-2.42h9.19Z"/><path class="cls-1" d="M87.35,51.39c2.6,.79,6.56,1.51,10.76,1.51,7.95,0,15.88-2.82,15.88-11.54,0-11.98-16.52-10.32-16.52-15.1,0-2.44,2.54-2.97,5.03-2.97,3.45,0,7.82,1.66,8.79,2.05l.75-8.25c-2.41-.82-6.07-1.29-9.5-1.29-7.85,0-15.59,3.07-15.59,10.84,0,11.77,16.47,9.32,16.47,15.49,0,2.38-2.37,3.28-5.4,3.28-4.16,0-8.07-2.08-9.76-2.83l-.91,8.81h0Z"/><path class="cls-1" d="M193.28,45.08c-.46,.13-1.72,.45-2.58,.45-1.89,0-3.95-.88-3.95-4.15v-9.05h5.85v-6.73h-5.85v-8.63h-9.32v8.63h-4.07v6.73h4.07v10.59c0,5.83,2.7,10,9.6,10,2,0,3.84-.27,5.1-.51l1.15-7.33h0Z"/><path class="cls-1" d="M54.47,34.43c.24,11.56-10.22,20.3-18.95,20.3H13.92L.37,68.22H35.28c11.14,0,21.83-10.02,21.83-21.99,0-3.52-.42-8.09-2.64-11.56v-.24h0Zm-3.7,8.52c1.35-2.41,2.01-5.05,2.17-7.62h-9.8c0,2.39-.4,4.98-1.29,7.62h8.92Zm-9.56,1.51c-1.11,2.83-3.75,6.51-6.32,8.52,4.98,0,10.67-2.17,14.82-8.52h-8.5Zm-1.11-1.51c.88-2.41,1.28-5.05,1.51-7.62h-14.82c.24,2.57,.64,5.22,1.51,7.62h11.8Zm-13.5,0c-.87-2.64-1.35-5.24-1.35-7.62H15.46c.24,2.57,.87,5.22,2.17,7.62h8.97Zm7.62,8.5c1.93-1.75,4.11-4.58,5.21-6.98h-10.48c1.11,2.41,3.28,5.24,5.26,6.98h0Zm-15.72-6.98c4.34,6.35,10.03,8.52,15.08,8.52-2.65-2.01-5.45-5.69-6.35-8.52h-8.73Zm23.34-18.29c.9,2.34,1.29,4.98,1.29,7.62h9.8c-.16-2.64-.83-5.28-2.17-7.62h-8.92Zm7.86-1.77c-4.16-6.09-9.84-8.5-14.82-8.5,2.57,1.94,5.21,5.62,6.32,8.5h8.5Zm-21.41,1.77c-.87,2.34-1.27,4.98-1.51,7.62h14.82c-.24-2.64-.64-5.28-1.51-7.62h-11.8Zm-10.67,0c-1.29,2.34-1.93,4.98-2.17,7.62h9.79c0-2.64,.47-5.28,1.35-7.62h-8.97Zm16.59-8.57c-1.98,1.75-4.15,4.39-5.26,6.8h10.48c-1.11-2.41-3.28-5.05-5.22-6.8h0Zm-6.99,6.8c.9-2.88,3.7-6.56,6.35-8.5-5.05,0-10.74,2.41-15.08,8.5h8.73Zm-13.31,9.8c-2.17-3.44-2.65-8.02-2.65-11.54C11.28,10.68,21.97,.58,33.11,.58h34.91l-13.55,13.66h-21.6c-8.68,0-19.19,8.81-18.95,19.94h0Z"/></svg>