<?xml version="1.0" encoding="UTF-8"?><svg id="Capa_1" xmlns="http://www.w3.org/2000/svg" viewBox="0 0 274.51 61.17"><defs><style>.cls-1{fill:#ec0f29;fill-rule:evenodd;}</style></defs><path class="cls-1" d="M154.93,43.38h-33.22l1.43-2.14h31.36l-6.84-38.63h-6.7l6.13,33.07h-2.42l-5.99-33.07h-7.84l-34.93,56.31h6.84l30.51-49.47,.57,3.71-28.51,45.76h6.84l6.13-9.98h22.24l1.71,9.98h6.7l-2-9.98h2.57l1.71,9.98h6.56l-2.85-15.54h0Zm-19.46-22.03l2.5,13.61h-10.98l8.48-13.61h0Z"/><polygon class="cls-1" points="51.59 59.04 52.73 53.48 95.08 53.48 93.79 59.04 51.59 59.04 51.59 59.04 51.59 59.04"/><polygon class="cls-1" points="53.34 51.2 95.68 51.2 96.82 45.64 70.87 45.64 72.87 37.23 96.96 37.37 98.25 31.81 74.15 31.81 74.58 29.67 98.67 29.67 100.1 24.11 76.01 24.11 78 15.84 103.66 15.84 104.95 10.28 79.14 10.28 79.71 8.14 105.52 8.14 106.8 2.58 74.01 2.58 64.03 45.64 61.61 45.64 71.59 2.58 64.6 2.58 53.34 51.2 53.34 51.2 53.34 51.2"/><polygon class="cls-1" points="160.28 58.92 173.4 2.6 180.1 2.6 166.98 58.92 160.28 58.92 160.28 58.92 160.28 58.92"/><path class="cls-1" d="M55.88,19.72c.41-9.97-6.22-18.87-21.94-18.87C19.8,.85,9.31,8.02,7.15,18.07c-1.59,7.37,2.44,12.59,7.13,15.05,2.64,1.28,11.27,3.31,15.31,4.68,4.24,1.44,4.15,4.07,4.03,6.17-1.21,3.25-4.13,4.24-8.77,4.24-4.79-.24-7.84-3.69-6.98-10.08h-7.49c-1,7,.58,11.41,7.45,14.05,7.41,2.85,14.65-.82,16.22-1.96,.28,.68-.18,2.03-.43,2.49-6.84,3.6-15.07,3.14-21.03-.93-5.55-3.79-4.77-11.12-4.35-13.65H1.16c-2,13.5,5.29,22.12,20.12,22.16,1.66,0,3.9,.2,6.65-.77,6.32-2.34,14.26-7.67,15.07-16.15,.21-4.56-1.89-9.34-6.88-10.91-4.99-1.57-13.21-3.64-16.18-4.85-3.09-1.26-5.49-4.25-5.49-7.7,0-7.68,7.02-12.73,17.71-13.54,12.19-.93,16.36,6.2,16.15,13.33h7.58Z"/><path class="cls-1" d="M46.27,19.73c0-2-.43-10.83-10.98-11.4-7.55-.41-18.25,2.99-18.46,11.33-.05,2.09,1.17,5.16,4.42,6.2,3.99,1.28,13.9,4.13,15.9,4.85,2,.71,8.38,3.49,8.09,12.69-.22,6.95-6.1,12.71-11.68,16.01,10.22-1.91,16.79-7.05,19.33-17.84,2.51-17.06-17.43-18.06-22.12-19.21-4.81-1.06-6.68-2.27-6.31-4.86,.29-2.05,2.76-3.94,6.84-3.94,1.81,0,3.4,.6,4.61,1.31,1.21,.71,2.23,2.59,2.4,4.88h7.96Z"/><path class="cls-1" d="M221.71,18.71c.32-13.4-9.98-15.97-16.68-16.11h-22.52l-12.97,56.31h6.7l4.06-17.68h14.33c3.42,0,3.42,2.99,2.99,4.42-.57,2.14-1.14,6.27-1.28,7.98-.14,1.71-.14,4.42,1,5.28h7.59c-1.89-2.39-.46-8.05,.39-13.26,.86-5.2-1.71-7.13-3.35-8.63-1.64-1.5-3.99-2.07-7.91-2.07h-12.33l.5-2.14h13.26c4.56,0,7.06,1.78,8.7,3.28,1.64,1.5,4.35,4.35,3.49,9.55-.86,5.2-2.21,11.55-.07,13.26h7.06c-.43-.71-.86-1.57-.86-2.99s.86-5.85,1.43-11.4c.57-5.56-2.07-8.27-4.35-9.84,.57-.43,10.55-4.13,10.83-15.97h0Zm-17.54,1.71c-.17,4.28-4.99,6.84-7.7,6.84h-12.97l2.6-11.4h12.65c1.85,0,5.56,1,5.42,4.56h0Zm2.35,10.69c-.93-.5-1.28-1-2.07-1.28,1.43-.86,8.13-4.85,7.84-10.98-.29-6.13-4.49-8.55-9.27-8.55h-15.68l.57-2.14h13.61c3.42,0,12.72,.57,12.9,10.55,.14,7.7-7.06,11.69-7.91,12.4h0Z"/><path class="cls-1" d="M273.66,19.72c.41-9.97-6.22-18.87-21.94-18.87-14.15,0-24.63,7.17-26.79,17.22-1.59,7.37,2.44,12.59,7.13,15.05,2.64,1.28,11.27,3.31,15.31,4.68,4.24,1.44,4.15,4.07,4.03,6.17-1.21,3.25-4.13,4.24-8.77,4.24-4.79-.24-7.84-3.69-6.98-10.08h-7.49c-1,7,.58,11.41,7.45,14.05,7.41,2.85,14.65-.82,16.22-1.96,.29,.68-.18,2.03-.43,2.49-6.84,3.6-15.07,3.14-21.03-.93-5.55-3.79-4.77-11.12-4.35-13.65h-7.09c-2,13.5,5.29,22.12,20.12,22.16,1.66,0,3.9,.2,6.65-.77,6.32-2.34,14.26-7.67,15.07-16.15,.21-4.56-1.89-9.34-6.88-10.91-4.99-1.57-13.21-3.64-16.18-4.85-3.09-1.26-5.49-4.25-5.49-7.7,0-7.68,7.02-12.73,17.71-13.54,12.19-.93,16.36,6.2,16.15,13.33h7.58Z"/><path class="cls-1" d="M264.05,19.73c0-2-.43-10.83-10.98-11.4-7.55-.41-18.25,2.99-18.46,11.33-.05,2.09,1.17,5.16,4.42,6.2,3.99,1.28,13.9,4.13,15.9,4.85,2,.71,8.38,3.49,8.09,12.69-.22,6.95-6.1,12.71-11.68,16.01,10.22-1.91,16.79-7.05,19.33-17.84,2.51-17.06-17.43-18.06-22.12-19.21-4.81-1.06-6.68-2.27-6.31-4.86,.29-2.05,2.76-3.94,6.84-3.94,1.81,0,3.4,.6,4.61,1.31,1.21,.71,2.23,2.59,2.4,4.88h7.96Z"/></svg>