<?xml version="1.0" encoding="UTF-8"?><svg id="Capa_1" xmlns="http://www.w3.org/2000/svg" viewBox="0 0 281.26 46.16"><defs><style>.cls-1{fill:#fe0000;}.cls-1,.cls-2{fill-rule:evenodd;}.cls-2{fill:#011a5d;}</style></defs><path class="cls-2" d="M40.15,17.6c-2.13,.48-2.1,.38-2.13,8.92-.02,8.24-.05,8.37-2.07,9.28l-.71,.32H2.21l-.65,.31c-1.05,.48-1.14,.8-1.14,4.19,0,3.22,.08,3.55,1,3.96,.72,.32,35.01,.29,36.9-.04,4-.69,6.45-3.64,6.96-8.39,.27-2.55-.05-14.7-.44-16.51-.41-1.9-2.08-2.63-4.69-2.04"/><path d="M77.96,20.37c-8.9-1.89-10-2.61-10.44-6.82-.77-7.32,1.61-8.97,12.24-8.47,8.99,.42,9.06,.41,9.47-1.43,.39-1.73-.42-2.64-2.76-3.09-1.25-.24-13.84-.38-15.77-.18h0c-3.03,.32-6.15,2.01-7.11,3.86-2.23,4.32-1.89,12.21,.69,15.82,1.91,2.67,3.6,3.4,11.49,4.98,6.95,1.39,8.17,1.88,9.24,3.72,1.59,2.74,1.31,8.2-.53,10.15-1.71,1.82-3.81,2.02-17.02,1.59-3.59-.11-4.07,.07-4.36,1.64-.55,3.03,1.31,3.61,11.62,3.62,9.25,.01,12.42-.92,14.66-4.31,2.44-3.69,2.52-11.51,.17-15.5-1.76-2.99-3.72-3.93-11.58-5.6Z"/><path d="M150.55,40.84c-8.3,.25-10.56-.32-12.54-3.2-2.5-3.63-2.26-13.99,.4-17.28,1.72-2.13,4.03-2.65,11.07-2.5,4.7,.1,4.84,.08,5.58-.93,1.97-2.66-3.96-4.7-11.6-4h0c-8.58,.78-12.23,5.71-12.23,16.51,0,11.7,4.29,16.43,14.93,16.43,7.38,0,10.67-1.36,9.6-3.96-.5-1.2-.53-1.2-5.21-1.06Z"/><path d="M173.67,12.98h0c-1.77,.1-3,.33-4.4,.83-2.42,.86-3.26,1.45-5.42,3.79-.33,.36-1.45,2.63-1.64,3.34-1.98,7.36-1.09,16.48,1.99,20.5,2.39,3.12,6.77,4.63,12.65,4.37,9.44-.41,13.27-5.16,13.27-16.47,0-12.43-4.61-17.01-16.45-16.36Zm11.42,17.69c-.32,7.71-2.67,10.36-9.19,10.36-7.1,0-9.49-2.93-9.49-11.68,0-2.77,.06-3.4,.64-6.01,.98-4.46,4.63-6.28,10.95-5.46h0c5.6,.73,7.45,4.08,7.09,12.8Z"/><path d="M215.62,13.17c-.82-.26-9.95-.41-11.64-.2-3.27,.42-5.22,2.67-5.56,6.44-.26,2.91-.23,23.52,.04,24.23,.42,1.12,1.47,1.66,2.83,1.46,1.99-.3,2.46-1.29,2.32-4.84-.2-5.14-.27-18.65-.1-19.62,.29-1.69,.76-2.25,2.36-2.91,.54-.22,1.22-.27,4.98-.35,3.58-.08,4.45-.13,4.87-.32,2-.87,1.93-3.27-.1-3.91Z"/><path d="M111.47,31.88c7.56-.09,7.9-.12,9.36-.8,4.6-2.15,5.44-10.63,1.46-14.74-2.45-2.54-8.11-3.93-13.31-3.28h0c-8.49,1.06-11.54,5.75-11.29,17.33,.27,12.5,6.03,16.77,20.41,15.13,4.57-.52,6.09-1.56,5.34-3.65-.41-1.14-1.08-1.22-6.79-.86-6.96,.44-10.15-.37-12.16-3.09-.99-1.34-1.73-4.22-1.29-5.04,.48-.9,.42-.9,8.27-.99Zm-5.55-13.02c1.84-1.16,6.94-1.56,9.98-.79,2.79,.71,4.01,2.45,3.83,5.47-.14,2.23-.84,3.34-2.45,3.85-1.21,.38-12.66,.29-13.45-.1-2.01-1-.58-6.74,2.1-8.42Z"/><path d="M244.52,30.18c-1.57-1.34-3.32-1.92-8.99-2.97-6.32-1.17-6.92-1.36-8.19-2.54-1.64-1.53-1.34-5.36,.48-6.29,1.27-.65,2.39-.75,7.43-.7,10.15,.11,9.64,.16,10.4-.97,.85-1.27,.09-2.52-1.84-3.03-2.07-.55-12.06-.89-14.76-.5h0c-6.12,.88-8.58,4.4-7.49,10.71,.79,4.56,2.72,5.81,11.49,7.46,6.38,1.2,7.54,1.61,8.56,3.09l.56,.8v1.42c0,4.02-2,4.62-14.44,4.3l-4.08-.1-.47,.33c-1.17,.81-1.47,2.32-.63,3.16,1.88,1.88,15.64,2,20.2,.18,5.11-2.04,6.17-10.6,1.78-14.35Z"/><path d="M274.33,40.81c-9.23,.84-12.57-.1-14.46-4.07-.66-1.39-.69-1.51-.7-2.65-.01-2.18-.36-2.09,8.35-2.21,7.9-.1,8.08-.12,9.83-1.04,2.56-1.34,3.68-4.04,3.54-8.48-.16-4.94-2.81-7.83-8.32-9.06-.95-.21-6.45-.4-7.47-.25h0c-8.4,1.2-11.54,5.6-11.54,16.14,0,13.06,5.3,17.56,19.46,16.52,5.67-.42,7.43-1.41,6.73-3.8-.4-1.38-1.01-1.5-5.43-1.1Zm-15.37-15.64c.01-2.69,1.14-5.15,2.87-6.23,1.78-1.12,5.83-1.61,8.89-1.07h0c3.7,.65,4.99,2.02,5.01,5.33,.01,2.1-.58,3.29-1.97,3.98l-.77,.38h-6.36c-7.86,0-7.68,.06-7.67-2.38Z"/><path id="path1" class="cls-1" d="M7.81,.56C4.77,.87,2.22,2.71,1.24,5.32c-.86,2.27-.8,1.75-.86,7.86-.13,13.73,.17,14.93,3.63,14.92,3.8,0,3.87-.18,3.88-9.26,0-8.08,.04-8.24,1.84-9.3l.64-.38,16.59-.07,16.59-.07,.69-.35c1.06-.53,1.22-1.08,1.24-4.15,0-2.76-.13-3.28-1.03-3.8-.51-.29-33.88-.46-36.62-.18"/></svg>