<?xml version="1.0" encoding="UTF-8"?><svg id="Capa_1" xmlns="http://www.w3.org/2000/svg" viewBox="0 0 235.69 83.37"><defs><style>.cls-1{fill:#6d398b;}</style></defs><path class="cls-1" d="M18.19,5.61S1.08,18.08,1.08,32.51s9.44,18.88,9.44,18.88c0,0,4.45,2.14,4.45,7.66s-5.7,14.07-11.4,18.35c0,0-3.92,3.74-2.32,5.34,1.6,1.6,15.32-4.27,21.2-17.64,5.88-13.36-.18-20.31-.18-20.31,0,0-10.51-11.58-10.51-18.89S21.57,8.82,21.57,8.82c0,0,3.21-2.85,1.96-4.1-1.25-1.25-5.34,.89-5.34,.89Z"/><path class="cls-1" d="M35.29,30.73s-5.34,6.95-5.34,19.6,4.45,20.13,10.87,20.13,7.66-5.35,7.66-5.35c0,0,.89-1.42,2.32,0,1.43,1.43,3.56,5.52,6.77,4.81,3.21-.71,1.96-35.45,1.96-35.45,0,0,.28-7.55-3.38-5.88-3.44,1.57-3.92,7.31-4.1,13.36-.17,5.88-2.85,17.82-8.02,17.82s-6.58-12.43-6.74-15.28c-.26-4.42,2.11-13.22,2.11-13.22,0,0,.67-2.29-.51-2.55-1.74-.38-3.59,2.02-3.59,2.02Z"/><path class="cls-1" d="M102.37,30.73s-5.34,6.95-5.34,19.6,4.45,20.13,10.87,20.13,7.66-5.35,7.66-5.35c0,0,.89-1.42,2.32,0,1.42,1.43,3.56,5.52,6.77,4.81,3.21-.71,1.96-35.45,1.96-35.45,0,0,.28-7.55-3.39-5.88-3.44,1.57-3.92,7.31-4.1,13.36-.17,5.88-2.85,17.82-8.02,17.82s-6.58-12.43-6.74-15.28c-.26-4.42,2.11-13.22,2.11-13.22,0,0,.67-2.29-.51-2.55-1.74-.38-3.59,2.02-3.59,2.02Z"/><path class="cls-1" d="M74.38,32.54s-3.22-21.56,.79-27.51c0,0,2.6-4.67-2.83-4.67,0,0-7.48,2.02-7.48,20.01s-1.32,47.35,7.14,49.2c8.46,1.85,21.96-11.64,21.96-28.3s-12.3-16-19.57-8.73Zm0,29.63c-1.85-28.3,5.55-25.66,5.55-25.66,0,0,6.35-.53,6.35,7.67,0,13.7-11.9,17.99-11.9,17.99Z"/><path class="cls-1" d="M165.07,32.54s-3.22-21.56,.79-27.51c0,0,2.6-4.67-2.83-4.67,0,0-7.48,2.02-7.48,20.01s-1.32,47.35,7.14,49.2c8.46,1.85,21.96-11.64,21.96-28.3s-12.3-16-19.57-8.73Zm0,29.63c-1.85-28.3,5.55-25.66,5.55-25.66,0,0,6.35-.53,6.35,7.67,0,13.7-11.9,17.99-11.9,17.99Z"/><path class="cls-1" d="M138.52,50.83s-.49,17.94-3.23,17.94-4.52-5.98-4.52-21.17,1.29-21.01,8.56-21.01c0,0,2.91,.97,.97,6.14,0,0,.08,1.7,1.78,0,1.7-1.7,5.74-5.74,7.76-3.72,2.02,2.02-.16,8.89-1.13,8.89s-2.1,.48-2.83-1.86c-.73-2.34-7.35,5.41-7.35,14.78Z"/><path class="cls-1" d="M195.72,28.53s-5.49,.49-6.79,19.23c-1.29,18.74,5.82,20.52,5.82,20.52,0,0,1.78,1.45,1.78-4.52s1.05-26.74,3.07-28.76c2.02-2.02,1.13-7.76-3.88-6.46Z"/><path class="cls-1" d="M198.46,13.51s-5.82,1.29-5.82,5.82,3.88,3.88,3.88,3.88c0,0,2.69-.37,4.2-5.65,.97-3.39-2.26-4.04-2.26-4.04Z"/><path class="cls-1" d="M232.93,69.55s-3.44-22.75,.19-33.9c0,0,3.22-10.34-6.71-10.34,0,0-22.95,2.1-22.95,25.37s14.62,18.66,19.55,13.73c0,0,1.62-1.62,1.62,0,0,0,2.1,10.02,8.4,10.02,0,0,1.78,0,1.78-1.78l-1.89-3.1Zm-11.68-12.74s-9.69,9.7-8.89-5.82c.81-15.51,8.56-19.07,8.56-19.07,3.31-1.6,5.02,1.22,5.17,2.36,0,15.67-4.84,22.53-4.84,22.53Z"/></svg>