<?xml version="1.0" encoding="UTF-8"?><svg id="Capa_1" xmlns="http://www.w3.org/2000/svg" viewBox="0 0 309.15 75.24"><defs><style>.cls-1{fill:#fdbb2f;}.cls-2{fill:#007cc2;}</style></defs><g><path class="cls-2" d="M183.32,43.32c0-7.35-3.14-13.82-13.75-13.82-5.44,0-9.77,1.53-12.13,2.89l1.73,5.91c2.16-1.36,5.59-2.49,8.85-2.49,5.38-.01,6.26,3.05,6.26,5.01v.46c-11.73-.02-19.15,4.04-19.15,12.32,0,5.05,3.78,9.79,10.34,9.79,4.04,0,7.42-1.61,9.44-4.19h.2s1.34,5.6,8.72,3.46c-.38-2.33-.51-4.82-.51-7.82m-8.76-3.77c0,.6-.06,1.22-.22,1.76-.68,2.25-3.01,4.15-5.92,4.15-2.42,0-4.36-1.38-4.36-4.29,0-4.46,4.91-5.69,10.49-5.66v4.05Z"/><path class="cls-2" d="M.54,19.5s7.66,31.41,8.89,36.51c1.43,5.95,4,8.14,11.42,6.66l4.78-19.47c1.21-4.84,2.03-8.29,2.81-13.21h.14c.55,4.97,1.33,8.38,2.33,13.22,0,0,1.95,8.84,2.95,13.48,1,4.64,3.78,7.57,11.05,5.98l11.41-43.18h-9.21l-3.9,18.67c-1.05,5.43-2,9.68-2.73,14.65h-.13c-.67-4.92-1.51-9-2.58-14.29l-4.05-19.02h-9.6l-4.33,18.54c-1.23,5.63-2.38,10.19-3.11,14.99h-.13c-.75-4.52-1.75-10.24-2.82-15.69,0,0-2.58-13.26-3.48-17.84"/><path class="cls-2" d="M82.47,43.32c0-7.35-3.14-13.82-13.75-13.82-5.45,0-9.77,1.53-12.13,2.89l1.73,5.91c2.16-1.36,5.59-2.49,8.85-2.49,5.38-.01,6.27,3.05,6.27,5.01v.46c-11.74-.02-19.15,4.04-19.15,12.32,0,5.05,3.77,9.79,10.34,9.79,4.04,0,7.41-1.61,9.44-4.19h.2s1.34,5.6,8.73,3.46c-.39-2.33-.52-4.82-.52-7.82m-8.76-3.77c0,.6-.05,1.22-.22,1.76-.68,2.25-3,4.15-5.91,4.15-2.43,0-4.36-1.38-4.36-4.29,0-4.46,4.9-5.69,10.49-5.66v4.05Z"/><polyline class="cls-2" points="97.09 53.5 97.09 19.49 88.32 19.49 88.32 62.67 97.09 62.67"/><path class="cls-2" d="M211.8,19.5v31.85c0,4.39,.82,7.46,2.59,9.35,1.54,1.64,4.09,2.71,7.13,2.71,2.6,0,5.15-.49,6.35-.94l-.11-6.85c-.89,.22-1.92,.4-3.33,.4-2.99,0-3.99-1.91-3.99-5.86v-12.18h7.63v-8.26h-7.63v-10.21"/><path class="cls-2" d="M189.17,30.24V62.67h9.04v-16.61c0-.9,.06-1.68,.2-2.39,.67-3.48,3.33-5.7,7.16-5.7,1.05,0,1.8,.11,2.6,.23v-8.49c-.68-.14-1.14-.2-1.99-.2-3.38,0-7.22,2.18-8.83,6.85h-.25v-6.12"/><path class="cls-2" d="M103.23,30.24V62.67h8.81v-19.02c0-.89,.1-1.84,.42-2.65,.73-1.92,2.51-4.16,5.36-4.16,3.56,0,5.22,3.01,5.22,7.35v18.49h8.8v-19.25c0-.85,.12-1.88,.37-2.63,.72-2.18,2.64-3.95,5.29-3.95,3.61,0,5.34,2.96,5.34,8.06v17.77h8.81v-19.1c0-10.08-5.12-14.06-10.89-14.06-2.56,0-4.58,.64-6.4,1.76-1.54,.94-2.91,2.28-4.11,4.04h-.13c-1.39-3.5-4.67-5.8-8.94-5.8-5.48,0-7.95,2.78-9.45,5.14h-.13v-4.41"/></g><g><path class="cls-1" d="M275.46,25.46c1.74,0,3.18-.91,3.37-2.08l1.72-19.47c0-1.92-2.25-3.5-5.09-3.5s-5.08,1.58-5.08,3.5l1.72,19.47c.19,1.17,1.63,2.08,3.37,2.08"/><path class="cls-1" d="M264.94,31.55c.87-1.51,.8-3.21-.12-3.96l-16-11.22c-1.66-.96-4.16,.2-5.58,2.65-1.42,2.45-1.17,5.19,.49,6.15l17.71,8.25c1.12,.41,2.62-.38,3.49-1.88"/><path class="cls-1" d="M285.99,31.54c.87,1.5,2.38,2.29,3.49,1.88l17.72-8.25c1.67-.96,1.91-3.7,.49-6.15-1.42-2.45-3.91-3.61-5.58-2.65l-16,11.22c-.92,.75-.98,2.45-.11,3.96"/><path class="cls-1" d="M275.46,49.78c1.74,0,3.18,.91,3.37,2.08l1.72,19.47c0,1.92-2.25,3.51-5.09,3.51s-5.08-1.58-5.08-3.51l1.72-19.47c.19-1.17,1.63-2.08,3.37-2.08"/><path class="cls-1" d="M285.99,43.7c.87-1.51,2.38-2.29,3.49-1.88l17.72,8.25c1.67,.96,1.91,3.7,.49,6.16-1.42,2.45-3.91,3.61-5.58,2.65l-16-11.22c-.92-.76-.98-2.45-.11-3.96"/><path class="cls-1" d="M264.94,43.7c.87,1.51,.8,3.2-.12,3.96l-16,11.22c-1.66,.96-4.16-.2-5.58-2.65-1.42-2.45-1.17-5.2,.49-6.16l17.71-8.24c1.12-.42,2.62,.37,3.49,1.88"/></g></svg>